<svg width="762" height="858" viewBox="0 0 762 858" fill="none" xmlns="http://www.w3.org/2000/svg" version="1.1"
    xmlns:xlink="http://www.w3.org/1999/xlink">>
    <path opacity="0" class="path1" fill-rule="evenodd" clip-rule="evenodd"
        d="M570.081 101.47L407.134 9.11179C390.923 -0.0768175 371.077 -0.0768127 354.866 9.1118L191.919 101.47L30.4334 196.423C14.3701 205.868 4.44723 223.055 4.2991 241.689L2.80999 428.984V429.016L4.2991 616.311C4.44723 634.945 14.3702 652.132 30.4334 661.577L191.891 756.514L191.919 756.53L354.866 848.888C371.077 858.077 390.923 858.077 407.134 848.888L570.081 756.53L570.109 756.514L731.567 661.577C747.63 652.132 757.553 634.945 757.701 616.311L759.19 429.016V428.984L757.701 241.689C757.553 223.055 747.63 205.868 731.567 196.423L570.109 101.486L570.081 101.47ZM571.095 99.7457L408.121 7.37185C391.297 -2.1635 370.703 -2.1635 353.88 7.37185L190.905 99.7457L29.4197 194.699C12.7503 204.5 2.45288 222.336 2.29916 241.673L0.810059 429L2.29916 616.327C2.45288 635.664 12.7503 653.499 29.4197 663.301L190.905 758.254L353.88 850.628C370.703 860.163 391.297 860.163 408.121 850.628L571.095 758.254L732.58 663.301C749.25 653.499 759.547 635.664 759.701 616.327L761.19 429L759.701 241.673C759.547 222.336 749.25 204.5 732.58 194.699L571.095 99.7457Z"
        fill="#151515" />
    <mask id="mask0" mask-type="alpha" maskUnits="userSpaceOnUse" x="0" y="0" width="762" height="858">
        <path id="romb-mask" fill-rule="evenodd" clip-rule="evenodd"
            d="M570.271 101.249L407.324 8.89146C391.113 -0.297154 371.267 -0.29715 355.056 8.89146L192.109 101.249L30.6234 196.203C14.5601 205.648 4.63717 222.835 4.48904 241.469L2.99994 428.764V428.796L4.48904 616.091C4.63717 634.724 14.5601 651.911 30.6234 661.357L192.081 756.294L192.109 756.31L355.056 848.668C371.267 857.856 391.113 857.856 407.324 848.668L570.271 756.31L570.299 756.294L731.757 661.357C747.82 651.911 757.743 634.724 757.891 616.091L759.38 428.796V428.764L757.891 241.469C757.743 222.835 747.82 205.648 731.757 196.203L570.299 101.265L570.271 101.249ZM571.285 99.5254L408.311 7.15151C391.487 -2.38384 370.893 -2.38384 354.069 7.15151L191.095 99.5254L29.6096 194.479C12.9402 204.28 2.64282 222.116 2.48911 241.453L1 428.78L2.48911 616.107C2.64282 635.444 12.9402 653.279 29.6096 663.081L191.095 758.034L354.069 850.408C370.893 859.943 391.487 859.943 408.311 850.408L571.285 758.034L732.77 663.081C749.44 653.279 759.737 635.444 759.891 616.107L761.38 428.78L759.891 241.453C759.737 222.116 749.44 204.28 732.77 194.479L571.285 99.5254Z"
            fill="#151515" />
    </mask>
    <g mask="url(#mask0)" class="lines">
        <g class="rect1-wrap">
            <rect class="rect1" x="-79" y="388" width="359" height="69" fill="url(#paint0_linear)" />
        </g>
        <g class="rect2-wrap">
            <rect class="rect2" x="845" y="457" width="359" height="69" transform="rotate(-180 845 457)"
                fill="url(#paint1_linear)" />
        </g>
    </g>
    <defs>
        <linearGradient id="paint0_linear" x1="100.5" y1="388" x2="100.5" y2="457" gradientUnits="userSpaceOnUse">
            <stop stop-color="#096ED1" />
            <stop offset="1" stop-opacity="0" />
        </linearGradient>
        <linearGradient id="paint1_linear" x1="1024.5" y1="457" x2="1024.5" y2="526" gradientUnits="userSpaceOnUse">
            <stop stop-color="#096ED1" />
            <stop offset="1" stop-opacity="0" />
        </linearGradient>
    </defs>
    <style>
        .rect1-wrap {
            transform-origin: 50% 50%;
            transform: rotate(-90deg);
            opacity: 0;
            animation: rotate_rect1 3s 3s infinite;
        }

        .rect2-wrap {
            transform-origin: 50% 50%;
            transform: scaleX(-1) rotate(92deg);
            opacity: 0;
            animation: rotate_rect2 3s 3s infinite;
        }

        @keyframes rotate_rect1 {

            0% {
                transform: rotate(-90deg);
                opacity: 1;
            }

            100% {
                opacity: 1;
                transform: rotate(90deg);
            }
        }

        @keyframes rotate_rect2 {

            0% {
                transform: scaleX(-1) rotate(92deg);
                opacity: 1;
            }

            100% {
                opacity: 1;
                transform: scaleX(-1) rotate(270deg);
            }
        }
    </style>

</svg>
