<svg width="20" height="21" viewBox="0 0 20 21" fill="none" xmlns="http://www.w3.org/2000/svg">
<path d="M15.1816 20.5C14.3511 20.466 13.5331 20.2866 12.7648 19.9701L11.3621 19.4592C10.3569 19.1065 9.40124 18.6264 8.51866 18.0305C7.67823 17.4615 6.88288 16.8289 6.13967 16.1381C5.31188 15.3811 4.53005 14.5755 3.79851 13.7254C2.87267 12.6929 2.10029 11.5331 1.50491 10.2813C1.21109 9.63791 0.964594 8.97559 0.727643 8.30381C0.500867 7.71602 0.307848 7.1158 0.149498 6.50608C-0.0926247 5.56676 -0.0396525 4.57584 0.301179 3.66755C0.564585 2.90797 0.959118 2.20028 1.46696 1.57651C1.73821 1.22511 2.11266 0.96709 2.53798 0.838494C3.05967 0.675682 3.59615 0.564757 4.13971 0.507334C4.27474 0.487106 4.4128 0.50896 4.53493 0.569921C4.65706 0.630881 4.7574 0.727972 4.82221 0.84795L5.55204 2.14421C5.89325 2.75923 6.23442 3.36478 6.58511 3.97033C6.73676 4.23526 6.91687 4.4718 7.08747 4.72727C7.12284 4.7884 7.15447 4.85159 7.18223 4.9165C7.2608 5.05126 7.29393 5.20761 7.27687 5.3626C7.25981 5.51759 7.19348 5.66302 7.08747 5.77753C6.76226 6.16216 6.39684 6.51107 5.99748 6.81832C5.63731 7.11163 5.28664 7.43333 4.94543 7.76449C4.82655 7.85958 4.74646 7.99471 4.72028 8.14453C4.69411 8.29434 4.72362 8.44855 4.80324 8.5782C4.9928 8.91883 5.16336 9.25945 5.35292 9.59061C5.7528 10.2988 6.20594 10.9756 6.70833 11.6154C7.47695 12.5832 8.37642 13.4398 9.38108 14.1606C10.144 14.7015 10.9419 15.1914 11.7696 15.6272C11.9058 15.7067 12.0578 15.7552 12.215 15.7691C12.3501 15.7842 12.4858 15.7469 12.5941 15.665C12.8974 15.3907 13.1818 15.1068 13.4567 14.804C13.7315 14.5012 14.0727 14.066 14.4045 13.7065C14.494 13.6058 14.5959 13.5167 14.7077 13.4415C14.8424 13.3097 15.0205 13.2312 15.2088 13.2208C15.3971 13.2103 15.583 13.2686 15.7314 13.3848C16.0916 13.6118 16.4423 13.8579 16.8119 14.0755L18.7833 15.173L19.7311 15.7313C19.823 15.7928 19.8963 15.8781 19.9431 15.9782C19.9899 16.0783 20.0083 16.1892 19.9965 16.299C19.9573 16.8024 19.8651 17.3003 19.7216 17.7845C19.5346 18.4394 19.0994 18.996 18.5084 19.3362C17.7338 19.892 16.8423 20.2641 15.902 20.4243C15.6934 20.4716 15.4375 20.4811 15.1816 20.5Z" fill="white"/>
</svg>
