<?xml version="1.0" encoding="utf-8"?>
<!-- Generator: Adobe Illustrator 24.1.2, SVG Export Plug-In . SVG Version: 6.00 Build 0)  -->
<svg version="1.1" id="Слой_1" xmlns="http://www.w3.org/2000/svg" xmlns:xlink="http://www.w3.org/1999/xlink" x="0px" y="0px"
	 viewBox="0 0 188.35 89.77" style="enable-background:new 0 0 188.35 89.77;" xml:space="preserve">
<style type="text/css">
	.st0{fill:#39BDEF;}
	.st1{fill:#FFFFFF;}
</style>
<g>
	<g>
		<path class="st0" d="M27.11,51.38L27.11,51.38c-1.31,0-2.38-1.06-2.38-2.38V12.01c0-1.31,1.06-2.38,2.38-2.38l0,0
			c1.31,0,2.38,1.06,2.38,2.38V49C29.49,50.32,28.42,51.38,27.11,51.38z"/>
		<path class="st0" d="M13.78,39.2L13.78,39.2c-1.31,0-2.38-1.06-2.38-2.38V10.98c0-1.31,1.06-2.38,2.38-2.38l0,0
			c1.31,0,2.38,1.06,2.38,2.38v25.85C16.16,38.14,15.09,39.2,13.78,39.2z"/>
		<path class="st0" d="M40.44,51.38L40.44,51.38c1.31,0,2.38-1.06,2.38-2.38V12.01c0-1.31-1.06-2.38-2.38-2.38l0,0
			c-1.31,0-2.38,1.06-2.38,2.38V49C38.07,50.32,39.13,51.38,40.44,51.38z"/>
		<path class="st0" d="M53.78,39.2L53.78,39.2c1.31,0,2.38-1.06,2.38-2.38V10.98c0-1.31-1.06-2.38-2.38-2.38l0,0
			c-1.31,0-2.38,1.06-2.38,2.38v25.85C51.4,38.14,52.46,39.2,53.78,39.2z"/>
	</g>
	<g>
		<path class="st1" d="M33.78,56.2L33.78,56.2c-1.31,0-2.38-1.06-2.38-2.38V16.83c0-1.31,1.06-2.38,2.38-2.38l0,0
			c1.31,0,2.38,1.06,2.38,2.38v36.99C36.15,55.13,35.09,56.2,33.78,56.2z"/>
		<path class="st1" d="M20.44,44.69L20.44,44.69c-1.31,0-2.38-1.06-2.38-2.38V5.32c0-1.31,1.06-2.38,2.38-2.38l0,0
			c1.31,0,2.38,1.06,2.38,2.38v36.99C22.82,43.62,21.76,44.69,20.44,44.69z"/>
		<path class="st1" d="M7.11,32.28L7.11,32.28c-1.31,0-2.38-1.06-2.38-2.38V17.72c0-1.31,1.06-2.38,2.38-2.38l0,0
			c1.31,0,2.38,1.06,2.38,2.38v12.18C9.49,31.22,8.43,32.28,7.11,32.28z"/>
		<path class="st1" d="M46.98,44.69h0.25c1.24,0,2.25-1.01,2.25-2.25V5.2c0-1.24-1.01-2.25-2.25-2.25h-0.25
			c-1.24,0-2.25,1.01-2.25,2.25v37.24C44.73,43.68,45.74,44.69,46.98,44.69z"/>
		<path class="st1" d="M60.44,32.28L60.44,32.28c1.31,0,2.38-1.06,2.38-2.38V17.72c0-1.31-1.06-2.38-2.38-2.38l0,0
			c-1.31,0-2.38,1.06-2.38,2.38v12.18C58.07,31.22,59.13,32.28,60.44,32.28z"/>
	</g>
	<g>
		<g>
			<path class="st1" d="M84.42,15.75v0.07c1.83,0.73,2.74,2.03,2.74,3.9c0,3.57-2.24,5.35-6.72,5.35c-1.42,0-2.62-0.16-3.6-0.49
				c-1.45-0.48-2.18-1.28-2.18-2.4c0-0.98,0.54-1.47,1.61-1.47c0.45,0,0.9,0.09,1.36,0.27c0.67,0.27,1.09,0.43,1.26,0.48
				c0.36,0.09,0.9,0.14,1.61,0.14c1.73,0,2.6-0.67,2.6-2c0-0.57-0.2-1.06-0.61-1.47c-0.31-0.33-0.76-0.52-1.36-0.58
				c-0.14-0.02-0.64-0.02-1.5-0.02c-1.62,0-2.43-0.54-2.43-1.61c0-0.48,0.23-0.88,0.68-1.19c0.34-0.23,0.8-0.37,1.36-0.42
				c0.11-0.02,0.59-0.02,1.45-0.02c0.59,0,1.08-0.12,1.47-0.35c0.48-0.29,0.73-0.71,0.73-1.26c0-1.22-0.78-1.84-2.34-1.84
				c-0.48,0-1.11,0.11-1.88,0.32c-0.77,0.21-1.35,0.32-1.74,0.32c-1.08,0-1.61-0.49-1.61-1.47c0-0.33,0.15-0.65,0.44-0.96
				c0.92-0.97,2.55-1.45,4.89-1.45c4.06,0,6.08,1.57,6.08,4.7C86.74,13.92,85.97,15.08,84.42,15.75z"/>
			<path class="st1" d="M95.47,7.57c1.39,0,2.35,0.75,2.88,2.24l4.31,12.27c0.19,0.53,0.28,0.94,0.28,1.21
				c0,0.53-0.19,0.96-0.56,1.29c-0.37,0.33-0.83,0.49-1.36,0.49c-0.98,0-1.67-0.61-2.06-1.84l-0.63-2h-6.04l-0.7,2.14
				c-0.37,1.13-1,1.7-1.87,1.7c-0.55,0-0.99-0.17-1.33-0.5c-0.34-0.33-0.51-0.77-0.51-1.32c0-0.41,0.06-0.78,0.19-1.12l4.45-12.04
				C93.12,8.41,94.11,7.57,95.47,7.57z M95.35,11.8l-1.94,5.99h3.86L95.4,11.8H95.35z"/>
			<path class="st1" d="M107.05,24.88c-0.98,0-1.67-0.17-2.06-0.5c-0.39-0.34-0.59-0.99-0.59-1.95V10.54c0-1.01,0.19-1.72,0.59-2.13
				c0.39-0.41,1.09-0.61,2.11-0.61h3.18c1.54,0,2.85,0.32,3.93,0.96c1.31,0.76,1.97,1.86,1.97,3.3c0,1.86-0.67,3.11-2.01,3.77v0.07
				c1,0.31,1.72,0.77,2.15,1.37c0.44,0.6,0.65,1.42,0.65,2.47c0,1.73-0.6,3.05-1.8,3.95c-1.06,0.8-2.49,1.19-4.28,1.19H107.05z
				 M108.29,11.12v3.35h1.68c0.76,0,1.3-0.09,1.61-0.28c0.44-0.25,0.65-0.72,0.65-1.4c0-1.11-0.76-1.66-2.27-1.66H108.29z
				 M108.29,17.51v4.02h1.94c0.83,0,1.44-0.11,1.85-0.33c0.53-0.3,0.8-0.83,0.8-1.59c0-0.89-0.26-1.48-0.77-1.78
				c-0.37-0.22-1.02-0.33-1.94-0.33H108.29z"/>
			<path class="st1" d="M118.38,16.35c0-2.55,0.72-4.63,2.15-6.24c1.48-1.68,3.49-2.52,6.01-2.52c2.54,0,4.56,0.83,6.04,2.5
				c1.44,1.6,2.15,3.69,2.15,6.26c0,2.55-0.72,4.64-2.15,6.24c-1.5,1.65-3.51,2.48-6.04,2.48s-4.53-0.83-6.01-2.5
				C119.1,20.98,118.38,18.91,118.38,16.35z M122.5,16.4c0,1.4,0.32,2.56,0.96,3.48c0.72,1.07,1.75,1.61,3.09,1.61
				s2.38-0.53,3.11-1.59c0.64-0.93,0.96-2.1,0.96-3.5c0-1.45-0.3-2.64-0.91-3.57c-0.73-1.11-1.79-1.66-3.16-1.66
				s-2.42,0.55-3.14,1.66C122.8,13.76,122.5,14.95,122.5,16.4z"/>
			<path class="st1" d="M148.64,24.88h-9.92v1.52c0,0.53-0.16,0.95-0.47,1.26c-0.31,0.31-0.74,0.47-1.29,0.47
				c-0.53,0-0.95-0.16-1.25-0.47c-0.3-0.31-0.46-0.73-0.46-1.26v-3.11c0-1.11,0.51-1.66,1.52-1.66c0.3,0,0.53-0.24,0.69-0.73
				c0.16-0.48,0.25-1.32,0.25-2.5v-6.27c0-1.33,0.37-2.38,1.12-3.16c0.75-0.78,1.79-1.17,3.11-1.17h5.97c0.83,0,1.41,0.27,1.75,0.8
				c0.27,0.42,0.4,1.08,0.4,1.97v11.07c1.36,0,2.04,0.55,2.04,1.66v3.11c0,1.15-0.58,1.73-1.73,1.73c-0.53,0-0.95-0.16-1.26-0.47
				c-0.31-0.31-0.47-0.73-0.47-1.26V24.88z M140.66,21.63h5.5V11.24h-4.12c-0.58,0-0.87,0.31-0.87,0.94v6.22
				C141.17,19.59,141,20.66,140.66,21.63z"/>
		</g>
		<g>
			<path class="st1" d="M78.55,37.63V48.7c0,1.84-0.65,2.76-1.94,2.76s-1.94-0.92-1.94-2.76V36.95c0-1.84,0.89-2.76,2.67-2.76h9.59
				c1.78,0,2.67,0.92,2.67,2.76V48.7c0,1.84-0.65,2.76-1.94,2.76c-1.3,0-1.94-0.92-1.94-2.76V37.63H78.55z"/>
			<path class="st1" d="M101.57,45.87l0.1,0l2.25-9.59c0.16-0.67,0.49-1.22,0.99-1.65c0.51-0.43,1.1-0.64,1.79-0.64
				c0.78,0,1.45,0.25,2.01,0.75c0.56,0.5,0.9,1.14,1.03,1.92l1.87,11.65c0.09,0.57,0.14,1.01,0.14,1.3c0,1.24-0.58,1.86-1.75,1.86
				c-0.68,0-1.18-0.26-1.49-0.79c-0.22-0.34-0.39-0.9-0.51-1.69l-1.48-9.34l-0.06,0l-2.2,8.63c-0.23,0.88-0.5,1.52-0.8,1.9
				c-0.44,0.54-1.05,0.81-1.85,0.81s-1.41-0.27-1.85-0.81c-0.3-0.37-0.56-1.01-0.8-1.9l-2.22-8.63l-0.04,0l-1.45,9.34
				c-0.13,0.8-0.3,1.37-0.52,1.71c-0.33,0.51-0.84,0.76-1.52,0.76c-1.17,0-1.76-0.62-1.76-1.86c0-0.19,0.05-0.62,0.16-1.3
				l1.87-11.65c0.12-0.78,0.46-1.42,1.02-1.92c0.55-0.5,1.22-0.75,2-0.75c0.7,0,1.3,0.21,1.79,0.63c0.49,0.42,0.82,0.98,0.99,1.66
				L101.57,45.87z"/>
			<path class="st1" d="M113.63,48.7V36.74c0-1.84,0.65-2.76,1.94-2.76c1.29,0,1.94,0.92,1.94,2.76v3.72l4.96-5.1
				c0.89-0.92,1.6-1.38,2.13-1.38c0.5,0,0.94,0.18,1.33,0.54c0.39,0.36,0.59,0.79,0.59,1.29c0,0.36-0.19,0.76-0.56,1.19
				c-0.02,0.02-0.34,0.34-0.98,0.98l-3.92,3.89l5.21,5.88c0.65,0.73,0.98,1.37,0.98,1.91c0,0.47-0.18,0.88-0.55,1.25
				c-0.37,0.36-0.78,0.55-1.25,0.55c-0.62,0-1.33-0.45-2.11-1.35l-5.15-5.97l-0.68,0.56v4.01c0,1.84-0.65,2.75-1.94,2.75
				C114.28,51.46,113.63,50.54,113.63,48.7z"/>
			<path class="st1" d="M138.39,51.46c-1.29,0-1.94-0.92-1.94-2.76V36.6c0-1.74,0.6-2.62,1.8-2.62c0.73,0,1.42,0.42,2.06,1.26
				l7.18,9.5v-8c0-1.84,0.65-2.76,1.94-2.76c1.29,0,1.94,0.92,1.94,2.76v12.43c0,1.61-0.59,2.41-1.78,2.41
				c-0.78,0-1.52-0.47-2.22-1.4l-7.04-9.31v7.85C140.33,50.54,139.68,51.46,138.39,51.46z M153.22,41.12c0-1.4,0.39-2.54,1.16-3.42
				c0.77-0.87,1.85-1.31,3.24-1.31c1.39,0,2.46,0.43,3.23,1.3c0.76,0.87,1.15,2.01,1.15,3.43c0,1.4-0.37,2.52-1.12,3.35
				c-0.78,0.87-1.86,1.31-3.25,1.31c-1.37,0-2.45-0.43-3.23-1.29C153.61,43.63,153.22,42.5,153.22,41.12z M155.09,50.34
				c-1.25,0-1.87-0.45-1.87-1.36c0-0.87,0.63-1.31,1.9-1.31h5.01c1.25,0,1.87,0.44,1.87,1.33c0,0.56-0.19,0.94-0.56,1.12
				c-0.27,0.14-0.71,0.21-1.33,0.21H155.09z M156.12,41.07c0,1.48,0.5,2.22,1.5,2.22c0.98,0,1.47-0.74,1.47-2.22
				c0-1.47-0.49-2.2-1.47-2.2C156.62,38.87,156.12,39.6,156.12,41.07z"/>
			<path class="st1" d="M172.62,47.69h2.01c1.15,0,1.73,0.6,1.73,1.79c0,1.19-0.58,1.79-1.73,1.79h-8.1c-1.15,0-1.73-0.6-1.73-1.79
				c0-1.19,0.58-1.79,1.73-1.79h2.15V37.64c-0.97,0-1.58-0.04-1.83-0.12c-0.62-0.17-0.94-0.62-0.94-1.34c0-0.37,0.17-0.71,0.52-1.01
				c0.94-0.8,2.46-1.2,4.56-1.2c0.39,0,0.67,0.02,0.84,0.07c0.39,0.11,0.63,0.53,0.73,1.27c0.03,0.19,0.05,0.73,0.05,1.64V47.69z"/>
		</g>
	</g>
</g>
<g>
	<path class="st0" d="M11.33,69.27c0,0.13-0.04,0.23-0.13,0.32c-0.09,0.09-0.2,0.14-0.33,0.14H5.2c-0.13,0-0.24-0.05-0.33-0.14
		c-0.09-0.09-0.13-0.2-0.13-0.32v-5.11c0-0.13,0.04-0.24,0.13-0.33c0.09-0.09,0.2-0.13,0.33-0.13s0.24,0.04,0.33,0.13
		s0.13,0.2,0.13,0.33v4.8h1.91v-4.8c0-0.13,0.04-0.23,0.13-0.32c0.09-0.09,0.2-0.14,0.33-0.14c0.13,0,0.24,0.05,0.33,0.14
		c0.09,0.09,0.13,0.2,0.13,0.32v4.8h1.91v-4.8c0-0.13,0.04-0.24,0.13-0.33c0.09-0.09,0.2-0.13,0.33-0.13c0.13,0,0.24,0.04,0.33,0.13
		s0.13,0.2,0.13,0.33V69.27z"/>
	<path class="st0" d="M15.45,68.99c-0.14,0.46-0.28,0.89-0.42,1.26c-0.14,0.38-0.3,0.7-0.49,0.98c-0.19,0.28-0.41,0.49-0.67,0.65
		s-0.58,0.24-0.97,0.25c-0.13,0-0.25-0.04-0.34-0.12c-0.09-0.08-0.14-0.19-0.14-0.32c0-0.11,0.04-0.21,0.12-0.3
		c0.08-0.09,0.18-0.13,0.32-0.14c0.19-0.01,0.35-0.04,0.49-0.1c0.14-0.06,0.26-0.15,0.37-0.27c0.11-0.12,0.21-0.28,0.3-0.47
		s0.18-0.42,0.27-0.7l-1.88-5.42c-0.02-0.02-0.02-0.04-0.02-0.08c0-0.04,0-0.06,0-0.09c0-0.13,0.04-0.23,0.13-0.31
		c0.09-0.08,0.2-0.12,0.33-0.12c0.09,0,0.17,0.03,0.24,0.08c0.07,0.05,0.13,0.13,0.17,0.23l1.48,4.48L16.03,64
		c0.04-0.1,0.1-0.18,0.18-0.23c0.08-0.05,0.16-0.08,0.25-0.08c0.12,0,0.22,0.04,0.32,0.13c0.09,0.09,0.14,0.2,0.14,0.33
		c0,0.03-0.01,0.08-0.02,0.14L15.45,68.99z"/>
	<path class="st0" d="M20.83,68.75c-0.2,0-0.35-0.09-0.45-0.28l-1.54-2.78v3.67c0,0.13-0.05,0.23-0.14,0.32
		c-0.09,0.09-0.2,0.14-0.32,0.14c-0.13,0-0.23-0.05-0.32-0.14c-0.09-0.09-0.13-0.2-0.13-0.32v-5.17c0-0.14,0.05-0.26,0.14-0.35
		c0.09-0.09,0.21-0.14,0.35-0.14c0.11,0,0.2,0.03,0.28,0.08c0.07,0.06,0.14,0.13,0.19,0.22l1.94,3.53L22.78,64
		c0.05-0.09,0.12-0.17,0.19-0.22c0.07-0.05,0.17-0.08,0.28-0.08c0.14,0,0.26,0.05,0.35,0.14c0.09,0.09,0.14,0.21,0.14,0.35v5.17
		c0,0.13-0.05,0.23-0.14,0.32c-0.09,0.09-0.19,0.14-0.31,0.14c-0.13,0-0.24-0.05-0.33-0.14c-0.09-0.09-0.13-0.2-0.13-0.32v-3.67
		l-1.54,2.78c-0.1,0.19-0.25,0.28-0.45,0.28H20.83z"/>
	<path class="st0" d="M27.38,69.83c-0.36,0-0.68-0.05-0.96-0.16s-0.51-0.25-0.69-0.44c-0.19-0.19-0.32-0.41-0.42-0.67
		c-0.09-0.26-0.14-0.53-0.14-0.83v-1.97c0-0.29,0.05-0.56,0.14-0.82c0.09-0.26,0.23-0.48,0.42-0.67c0.18-0.19,0.42-0.34,0.69-0.45
		c0.28-0.11,0.59-0.17,0.96-0.17s0.68,0.06,0.96,0.17c0.28,0.11,0.51,0.26,0.69,0.45c0.18,0.19,0.32,0.41,0.42,0.67
		c0.09,0.26,0.14,0.53,0.14,0.82v1.97c0,0.3-0.05,0.58-0.14,0.83c-0.09,0.26-0.23,0.48-0.42,0.67c-0.19,0.19-0.42,0.34-0.69,0.44
		C28.06,69.77,27.74,69.83,27.38,69.83z M27.38,68.98c0.43,0,0.75-0.11,0.96-0.33c0.22-0.22,0.32-0.53,0.32-0.92v-1.98
		c0-0.39-0.11-0.69-0.32-0.91c-0.22-0.22-0.54-0.33-0.96-0.33c-0.42,0-0.75,0.11-0.96,0.33c-0.22,0.22-0.32,0.52-0.32,0.91v1.98
		c0,0.39,0.11,0.7,0.32,0.92C26.63,68.87,26.95,68.98,27.38,68.98z"/>
	<path class="st0" d="M34.17,65.35c0,0.35-0.09,0.65-0.26,0.87c-0.17,0.23-0.46,0.38-0.86,0.46c0.44,0.09,0.76,0.25,0.95,0.5
		c0.19,0.24,0.29,0.56,0.29,0.94c0,0.52-0.17,0.93-0.5,1.24c-0.33,0.31-0.84,0.46-1.52,0.46c-0.16,0-0.34-0.01-0.55-0.03
		c-0.21-0.02-0.41-0.06-0.6-0.11c-0.19-0.05-0.35-0.13-0.48-0.21c-0.13-0.09-0.19-0.2-0.19-0.34c0-0.09,0.03-0.18,0.1-0.27
		c0.07-0.09,0.19-0.14,0.37-0.14c0.04,0,0.06,0,0.06,0.01c0,0,0.01,0.01,0.03,0.02c0.15,0.06,0.33,0.12,0.55,0.18
		c0.22,0.06,0.46,0.09,0.73,0.09c0.35,0,0.62-0.07,0.81-0.21c0.18-0.14,0.28-0.39,0.28-0.73c0-0.08-0.01-0.17-0.04-0.28
		s-0.08-0.21-0.17-0.3c-0.09-0.09-0.23-0.18-0.41-0.25c-0.18-0.07-0.44-0.11-0.76-0.13c-0.13-0.01-0.26-0.03-0.39-0.07
		c-0.13-0.04-0.19-0.15-0.19-0.33c0-0.09,0.02-0.17,0.05-0.21c0.04-0.05,0.08-0.08,0.14-0.11c0.05-0.02,0.11-0.04,0.18-0.05
		c0.06-0.01,0.12-0.02,0.18-0.02c0.29-0.02,0.52-0.07,0.7-0.15c0.17-0.08,0.3-0.17,0.39-0.27c0.09-0.1,0.14-0.21,0.17-0.31
		c0.03-0.11,0.04-0.2,0.04-0.29c0-0.27-0.09-0.47-0.26-0.61c-0.17-0.14-0.45-0.21-0.83-0.21c-0.23,0-0.42,0.02-0.57,0.06
		c-0.15,0.04-0.29,0.09-0.41,0.15c-0.08,0.04-0.15,0.06-0.21,0.06c-0.13,0-0.23-0.04-0.31-0.12c-0.08-0.08-0.12-0.18-0.12-0.29
		c0-0.13,0.06-0.23,0.17-0.32c0.11-0.09,0.25-0.16,0.42-0.21c0.17-0.05,0.34-0.09,0.54-0.11c0.19-0.02,0.37-0.04,0.53-0.04
		c0.65,0,1.14,0.16,1.46,0.47S34.17,64.85,34.17,65.35z"/>
	<path class="st0" d="M38.61,65.74c0-0.84-0.42-1.26-1.26-1.26c-0.2,0-0.37,0.02-0.5,0.07c-0.13,0.05-0.26,0.11-0.4,0.18
		c-0.02,0.01-0.06,0.03-0.12,0.05c-0.06,0.03-0.13,0.04-0.19,0.04c-0.11,0-0.19-0.04-0.24-0.13c-0.05-0.09-0.08-0.17-0.09-0.26
		c-0.02-0.13,0.02-0.25,0.12-0.35c0.09-0.1,0.22-0.18,0.38-0.24c0.16-0.06,0.34-0.11,0.54-0.14s0.4-0.04,0.61-0.04
		c0.74,0,1.27,0.2,1.59,0.6c0.32,0.4,0.48,1,0.48,1.78v2.6c0,0.24,0.07,0.35,0.21,0.35c0.02,0,0.03,0,0.04-0.01
		c0.01,0,0.03-0.01,0.05-0.01c0.11,0,0.19,0.04,0.25,0.12c0.06,0.08,0.09,0.18,0.09,0.28c0,0.15-0.06,0.25-0.17,0.31
		c-0.11,0.06-0.23,0.09-0.37,0.09c-0.2,0-0.37-0.05-0.53-0.16c-0.15-0.11-0.27-0.25-0.36-0.43c-0.46,0.42-1,0.63-1.62,0.63
		c-0.61,0-1.07-0.16-1.36-0.49c-0.3-0.33-0.44-0.76-0.44-1.29V68c0-1.17,0.69-1.75,2.08-1.75c0.42,0,0.82,0.05,1.19,0.17V65.74z
		 M37.4,67.03c-0.24,0-0.44,0.03-0.59,0.08c-0.15,0.05-0.27,0.12-0.35,0.21c-0.08,0.09-0.14,0.19-0.17,0.31
		c-0.03,0.12-0.05,0.24-0.05,0.38v0.05c0,0.28,0.07,0.5,0.22,0.68c0.15,0.18,0.42,0.27,0.81,0.27c0.25,0,0.48-0.04,0.7-0.12
		c0.21-0.08,0.42-0.21,0.63-0.4V67.2c-0.2-0.06-0.4-0.11-0.61-0.14C37.78,67.04,37.58,67.03,37.4,67.03z"/>
	<path class="st0" d="M47.95,68.95h0.32c0.13,0,0.24,0.04,0.33,0.13c0.09,0.09,0.13,0.2,0.13,0.33v1.51c0,0.13-0.04,0.24-0.13,0.33
		c-0.09,0.09-0.2,0.13-0.33,0.13c-0.13,0-0.24-0.04-0.33-0.13c-0.09-0.09-0.13-0.2-0.13-0.33v-1.19h-5.99
		c-0.13,0-0.24-0.05-0.33-0.14c-0.09-0.09-0.13-0.2-0.13-0.32v-5.11c0-0.13,0.04-0.24,0.13-0.33s0.2-0.13,0.33-0.13
		c0.13,0,0.24,0.04,0.33,0.13s0.13,0.2,0.13,0.33v4.8h1.91v-4.8c0-0.13,0.04-0.23,0.13-0.32c0.09-0.09,0.2-0.14,0.33-0.14
		s0.24,0.05,0.33,0.14c0.09,0.09,0.13,0.2,0.13,0.32v4.8h1.91v-4.8c0-0.13,0.04-0.24,0.13-0.33s0.2-0.13,0.33-0.13
		c0.13,0,0.24,0.04,0.33,0.13s0.13,0.2,0.13,0.33V68.95z"/>
	<path class="st0" d="M50.36,69.85c-0.16,0-0.28-0.05-0.38-0.15c-0.09-0.1-0.14-0.22-0.14-0.37v-5.16c0-0.13,0.04-0.25,0.12-0.34
		s0.19-0.14,0.32-0.14c0.13,0,0.25,0.05,0.34,0.14s0.14,0.21,0.14,0.34v3.98l2.62-4.18c0.1-0.19,0.26-0.28,0.48-0.28
		c0.15,0,0.27,0.05,0.36,0.15c0.09,0.1,0.14,0.22,0.14,0.37v5.16c0,0.13-0.04,0.25-0.13,0.34s-0.2,0.14-0.33,0.14
		c-0.13,0-0.24-0.05-0.33-0.14s-0.13-0.21-0.13-0.34v-3.98l-2.61,4.19C50.71,69.76,50.56,69.85,50.36,69.85z"/>
	<path class="st0" d="M58.11,69.37c0,0.13-0.04,0.24-0.13,0.33c-0.09,0.09-0.2,0.13-0.33,0.13c-0.13,0-0.24-0.04-0.33-0.13
		c-0.09-0.09-0.13-0.2-0.13-0.33v-4.72h-1.23c-0.12,0-0.22-0.04-0.3-0.12c-0.08-0.08-0.12-0.19-0.12-0.31
		c0-0.13,0.04-0.23,0.12-0.31c0.08-0.08,0.18-0.12,0.3-0.12h3.38c0.12,0,0.22,0.04,0.3,0.12c0.08,0.08,0.12,0.19,0.12,0.31
		c0,0.13-0.04,0.23-0.12,0.31c-0.08,0.08-0.18,0.12-0.3,0.12h-1.23V69.37z"/>
	<path class="st0" d="M61.71,69.7c-0.09,0.09-0.2,0.13-0.33,0.13c-0.13,0-0.24-0.04-0.33-0.13c-0.09-0.09-0.13-0.2-0.13-0.33v-5.21
		c0-0.13,0.04-0.23,0.13-0.32c0.09-0.09,0.2-0.14,0.33-0.14c0.13,0,0.24,0.05,0.33,0.14c0.09,0.09,0.13,0.2,0.13,0.32v2.1h2.5v-2.1
		c0-0.13,0.04-0.23,0.13-0.32c0.09-0.09,0.2-0.14,0.33-0.14s0.24,0.05,0.33,0.14c0.09,0.09,0.13,0.2,0.13,0.32v5.21
		c0,0.13-0.04,0.24-0.13,0.33c-0.09,0.09-0.2,0.13-0.33,0.13s-0.24-0.04-0.33-0.13c-0.09-0.09-0.13-0.2-0.13-0.33v-2.33h-2.5v2.33
		C61.84,69.5,61.8,69.61,61.71,69.7z"/>
	<path class="st0" d="M67.91,66.2h1.2c0.76,0,1.3,0.16,1.62,0.47c0.33,0.31,0.49,0.75,0.49,1.33c0,0.52-0.16,0.94-0.48,1.26
		c-0.32,0.32-0.81,0.48-1.48,0.48h-1.82c-0.13,0-0.24-0.05-0.33-0.14c-0.09-0.09-0.13-0.2-0.13-0.32v-5.11
		c0-0.13,0.04-0.23,0.13-0.32c0.09-0.09,0.2-0.14,0.33-0.14s0.24,0.05,0.33,0.14c0.09,0.09,0.13,0.2,0.13,0.32V66.2z M67.91,66.98
		v1.96h1.33c0.72,0,1.07-0.33,1.07-0.98c0-0.12-0.02-0.24-0.05-0.35c-0.03-0.12-0.09-0.22-0.18-0.31c-0.09-0.09-0.21-0.17-0.37-0.22
		c-0.16-0.06-0.36-0.09-0.61-0.09H67.91z M72.98,69.37c0,0.13-0.04,0.24-0.13,0.33c-0.09,0.09-0.2,0.13-0.33,0.13
		c-0.13,0-0.24-0.04-0.33-0.13c-0.09-0.09-0.13-0.2-0.13-0.33v-5.21c0-0.13,0.04-0.23,0.13-0.32c0.09-0.09,0.2-0.14,0.33-0.14
		c0.13,0,0.24,0.05,0.33,0.14c0.09,0.09,0.13,0.2,0.13,0.32V69.37z"/>
	<path class="st0" d="M76.59,69.01c0.25,0,0.47-0.03,0.65-0.09c0.18-0.06,0.37-0.14,0.58-0.24c0.02-0.01,0.04-0.02,0.06-0.02
		c0.03-0.01,0.06-0.01,0.1-0.01c0.12,0,0.22,0.04,0.3,0.12c0.08,0.08,0.12,0.18,0.12,0.29c0,0.14-0.07,0.26-0.21,0.36
		c-0.14,0.1-0.31,0.18-0.51,0.24c-0.2,0.06-0.41,0.1-0.63,0.13c-0.22,0.03-0.41,0.04-0.57,0.04c-0.33,0-0.63-0.05-0.89-0.15
		c-0.26-0.1-0.48-0.24-0.66-0.41c-0.18-0.18-0.31-0.39-0.41-0.63c-0.09-0.24-0.14-0.5-0.14-0.77v-2.21c0-0.28,0.05-0.55,0.14-0.79
		c0.09-0.24,0.23-0.45,0.41-0.63c0.18-0.18,0.41-0.32,0.67-0.42c0.27-0.1,0.58-0.15,0.93-0.15c0.66,0,1.15,0.17,1.48,0.52
		c0.32,0.35,0.48,0.81,0.48,1.41c0,0.54-0.16,0.97-0.47,1.28c-0.31,0.31-0.82,0.47-1.53,0.47c-0.18,0-0.38-0.01-0.58-0.02
		c-0.21-0.02-0.42-0.04-0.62-0.08v0.7c0,0.33,0.11,0.59,0.32,0.79S76.17,69.01,76.59,69.01z M77.59,65.59
		c0-0.39-0.09-0.66-0.28-0.83c-0.19-0.17-0.45-0.25-0.8-0.25c-0.39,0-0.69,0.1-0.9,0.29c-0.21,0.19-0.32,0.45-0.32,0.79v0.9
		c0.22,0.03,0.45,0.05,0.7,0.06c0.24,0.01,0.43,0.02,0.54,0.02c0.22,0,0.4-0.03,0.54-0.08c0.14-0.06,0.25-0.13,0.32-0.22
		c0.08-0.09,0.13-0.2,0.15-0.31C77.58,65.82,77.59,65.7,77.59,65.59z"/>
	<path class="st0" d="M83.88,67.14c-0.12,0-0.22-0.04-0.3-0.12c-0.08-0.08-0.12-0.18-0.12-0.3c0-0.12,0.04-0.22,0.12-0.3
		c0.08-0.08,0.18-0.12,0.3-0.12h1.81v-0.33c0-0.47-0.09-0.84-0.27-1.09c-0.18-0.26-0.48-0.38-0.9-0.38c-0.23,0-0.43,0.03-0.59,0.08
		c-0.17,0.05-0.33,0.12-0.48,0.19c-0.07,0.02-0.13,0.04-0.19,0.04c-0.11,0-0.2-0.04-0.28-0.12c-0.08-0.08-0.12-0.17-0.12-0.28
		c0-0.14,0.06-0.26,0.19-0.35c0.13-0.09,0.28-0.16,0.47-0.22s0.38-0.09,0.58-0.12c0.2-0.02,0.38-0.04,0.53-0.04
		c0.35,0,0.65,0.06,0.9,0.18c0.25,0.12,0.46,0.28,0.62,0.48c0.16,0.2,0.28,0.45,0.36,0.73c0.08,0.28,0.12,0.58,0.12,0.9v1.55
		c0,0.32-0.04,0.62-0.12,0.9c-0.08,0.28-0.2,0.52-0.36,0.73c-0.16,0.2-0.37,0.37-0.62,0.48c-0.25,0.12-0.55,0.18-0.9,0.18
		c-0.15,0-0.33-0.01-0.53-0.04c-0.2-0.02-0.39-0.06-0.58-0.12s-0.34-0.13-0.47-0.22c-0.13-0.09-0.19-0.21-0.19-0.35
		c0-0.11,0.04-0.2,0.12-0.28c0.08-0.08,0.17-0.12,0.28-0.12c0.05,0,0.12,0.01,0.19,0.04c0.16,0.07,0.32,0.13,0.48,0.19
		c0.17,0.05,0.36,0.08,0.59,0.08c0.42,0,0.73-0.13,0.9-0.38c0.18-0.26,0.27-0.62,0.27-1.09v-0.39H83.88z"/>
	<path class="st0" d="M88.8,69.7c-0.09,0.09-0.2,0.13-0.33,0.13c-0.13,0-0.24-0.04-0.33-0.13c-0.09-0.09-0.13-0.2-0.13-0.33v-5.21
		c0-0.13,0.04-0.23,0.13-0.32c0.09-0.09,0.2-0.14,0.33-0.14c0.13,0,0.24,0.05,0.33,0.14c0.09,0.09,0.13,0.2,0.13,0.32v2.1h0.72
		l1.54-2.33c0.09-0.15,0.22-0.22,0.38-0.22c0.12,0,0.22,0.04,0.3,0.11C91.95,63.88,92,63.98,92,64.1c0,0.04-0.01,0.08-0.02,0.14
		c-0.01,0.05-0.03,0.1-0.05,0.14l-1.62,2.4l1.62,2.4c0.02,0.04,0.04,0.08,0.05,0.14C92,69.35,92,69.4,92,69.44
		c-0.01,0.12-0.05,0.21-0.14,0.28c-0.08,0.07-0.18,0.11-0.3,0.11c-0.16,0-0.28-0.07-0.38-0.22l-1.69-2.56h-0.57v2.33
		C88.93,69.5,88.89,69.61,88.8,69.7z"/>
	<path class="st0" d="M95.44,69.81c-0.2,0-0.42-0.02-0.65-0.06c-0.23-0.04-0.45-0.09-0.66-0.17v2.23c0,0.13-0.04,0.23-0.12,0.32
		c-0.08,0.09-0.19,0.13-0.34,0.13s-0.26-0.04-0.34-0.13c-0.08-0.09-0.12-0.19-0.12-0.32v-6.45c0-0.2-0.01-0.36-0.04-0.48
		c-0.03-0.12-0.08-0.24-0.15-0.35c-0.02-0.04-0.04-0.07-0.06-0.11c-0.02-0.03-0.02-0.07-0.02-0.13c0-0.13,0.04-0.23,0.13-0.3
		c0.09-0.07,0.18-0.11,0.28-0.11c0.09,0,0.18,0.03,0.25,0.08c0.07,0.05,0.14,0.12,0.21,0.21c0.27-0.14,0.54-0.26,0.83-0.37
		c0.29-0.1,0.58-0.15,0.89-0.15c0.62,0,1.09,0.21,1.41,0.62c0.31,0.41,0.47,0.95,0.47,1.61v1.54c0,0.35-0.03,0.68-0.09,0.97
		c-0.06,0.29-0.17,0.54-0.32,0.75c-0.15,0.21-0.36,0.37-0.61,0.49C96.13,69.75,95.82,69.81,95.44,69.81z M94.13,68.76
		c0.19,0.09,0.4,0.15,0.63,0.19c0.23,0.04,0.42,0.06,0.57,0.06c0.43,0,0.74-0.13,0.91-0.38c0.17-0.25,0.26-0.65,0.26-1.2v-1.54
		c0-0.94-0.38-1.41-1.15-1.41c-0.2,0-0.42,0.04-0.64,0.11c-0.22,0.07-0.43,0.17-0.64,0.3c0.04,0.2,0.06,0.36,0.06,0.48V68.76z"/>
	<path class="st0" d="M101.75,65.74c0-0.84-0.42-1.26-1.26-1.26c-0.2,0-0.37,0.02-0.5,0.07c-0.13,0.05-0.26,0.11-0.4,0.18
		c-0.02,0.01-0.06,0.03-0.12,0.05c-0.06,0.03-0.13,0.04-0.19,0.04c-0.11,0-0.19-0.04-0.24-0.13c-0.05-0.09-0.08-0.17-0.09-0.26
		c-0.02-0.13,0.02-0.25,0.12-0.35c0.09-0.1,0.22-0.18,0.38-0.24c0.16-0.06,0.34-0.11,0.54-0.14c0.2-0.03,0.4-0.04,0.61-0.04
		c0.74,0,1.27,0.2,1.59,0.6c0.32,0.4,0.48,1,0.48,1.78v2.6c0,0.24,0.07,0.35,0.21,0.35c0.02,0,0.03,0,0.04-0.01
		c0.01,0,0.03-0.01,0.05-0.01c0.11,0,0.19,0.04,0.25,0.12c0.06,0.08,0.09,0.18,0.09,0.28c0,0.15-0.06,0.25-0.17,0.31
		c-0.11,0.06-0.23,0.09-0.37,0.09c-0.2,0-0.37-0.05-0.53-0.16c-0.15-0.11-0.27-0.25-0.36-0.43c-0.46,0.42-1,0.63-1.62,0.63
		c-0.61,0-1.07-0.16-1.36-0.49c-0.3-0.33-0.44-0.76-0.44-1.29V68c0-1.17,0.69-1.75,2.08-1.75c0.42,0,0.82,0.05,1.19,0.17V65.74z
		 M100.54,67.03c-0.24,0-0.44,0.03-0.59,0.08c-0.15,0.05-0.27,0.12-0.35,0.21c-0.08,0.09-0.14,0.19-0.17,0.31
		c-0.03,0.12-0.05,0.24-0.05,0.38v0.05c0,0.28,0.07,0.5,0.22,0.68c0.15,0.18,0.42,0.27,0.81,0.27c0.25,0,0.48-0.04,0.7-0.12
		c0.21-0.08,0.42-0.21,0.63-0.4V67.2c-0.2-0.06-0.4-0.11-0.61-0.14C100.92,67.04,100.72,67.03,100.54,67.03z"/>
	<path class="st0" d="M105.29,69.7c-0.09,0.09-0.2,0.13-0.33,0.13s-0.24-0.04-0.33-0.13c-0.09-0.09-0.13-0.2-0.13-0.33v-5.21
		c0-0.13,0.04-0.23,0.13-0.32c0.09-0.09,0.2-0.14,0.33-0.14s0.24,0.05,0.33,0.14c0.09,0.09,0.13,0.2,0.13,0.32v2.1h2.5v-2.1
		c0-0.13,0.04-0.23,0.13-0.32c0.09-0.09,0.2-0.14,0.33-0.14c0.13,0,0.24,0.05,0.33,0.14c0.09,0.09,0.13,0.2,0.13,0.32v5.21
		c0,0.13-0.04,0.24-0.13,0.33c-0.09,0.09-0.2,0.13-0.33,0.13c-0.13,0-0.24-0.04-0.33-0.13c-0.09-0.09-0.13-0.2-0.13-0.33v-2.33h-2.5
		v2.33C105.42,69.5,105.38,69.61,105.29,69.7z"/>
	<path class="st0" d="M111.49,66.2h1.2c0.76,0,1.3,0.16,1.62,0.47c0.33,0.31,0.49,0.75,0.49,1.33c0,0.52-0.16,0.94-0.48,1.26
		c-0.32,0.32-0.81,0.48-1.48,0.48h-1.82c-0.13,0-0.24-0.05-0.33-0.14c-0.09-0.09-0.13-0.2-0.13-0.32v-5.11
		c0-0.13,0.04-0.23,0.13-0.32c0.09-0.09,0.2-0.14,0.33-0.14s0.24,0.05,0.33,0.14c0.09,0.09,0.13,0.2,0.13,0.32V66.2z M111.49,66.98
		v1.96h1.33c0.72,0,1.07-0.33,1.07-0.98c0-0.12-0.02-0.24-0.05-0.35c-0.03-0.12-0.09-0.22-0.18-0.31c-0.09-0.09-0.21-0.17-0.37-0.22
		c-0.16-0.06-0.36-0.09-0.61-0.09H111.49z M116.56,69.37c0,0.13-0.04,0.24-0.13,0.33c-0.09,0.09-0.2,0.13-0.33,0.13
		s-0.24-0.04-0.33-0.13c-0.09-0.09-0.13-0.2-0.13-0.33v-5.21c0-0.13,0.04-0.23,0.13-0.32c0.09-0.09,0.2-0.14,0.33-0.14
		s0.24,0.05,0.33,0.14c0.09,0.09,0.13,0.2,0.13,0.32V69.37z"/>
	<path class="st0" d="M5.53,81.93c-0.09,0.09-0.2,0.13-0.33,0.13s-0.24-0.04-0.33-0.13c-0.09-0.09-0.13-0.2-0.13-0.33v-5.14
		c0-0.13,0.04-0.23,0.13-0.32C4.95,76.04,5.06,76,5.2,76H8.5c0.13,0,0.24,0.05,0.33,0.14c0.09,0.09,0.13,0.2,0.13,0.32v5.14
		c0,0.13-0.04,0.24-0.13,0.33c-0.09,0.09-0.2,0.13-0.33,0.13c-0.13,0-0.24-0.04-0.33-0.13c-0.09-0.09-0.13-0.2-0.13-0.33v-4.82H5.66
		v4.82C5.66,81.73,5.61,81.84,5.53,81.93z"/>
	<path class="st0" d="M12.97,82.05c-0.2,0-0.42-0.02-0.65-0.06c-0.23-0.04-0.45-0.09-0.66-0.17v2.23c0,0.13-0.04,0.23-0.12,0.32
		c-0.08,0.09-0.19,0.13-0.34,0.13s-0.26-0.04-0.34-0.13c-0.08-0.09-0.12-0.19-0.12-0.32v-6.45c0-0.2-0.01-0.36-0.04-0.48
		c-0.03-0.12-0.08-0.24-0.15-0.35c-0.02-0.04-0.04-0.07-0.06-0.11c-0.02-0.03-0.02-0.07-0.02-0.13c0-0.13,0.04-0.23,0.13-0.3
		c0.09-0.07,0.18-0.11,0.28-0.11c0.09,0,0.18,0.03,0.25,0.08c0.07,0.05,0.14,0.12,0.21,0.21c0.27-0.14,0.54-0.26,0.83-0.37
		c0.29-0.1,0.58-0.15,0.89-0.15c0.62,0,1.09,0.21,1.41,0.62c0.31,0.41,0.47,0.95,0.47,1.61v1.54c0,0.35-0.03,0.68-0.09,0.97
		c-0.06,0.29-0.17,0.54-0.32,0.75s-0.36,0.37-0.61,0.49C13.66,81.99,13.35,82.05,12.97,82.05z M11.66,80.99
		c0.19,0.09,0.4,0.15,0.63,0.19c0.23,0.04,0.42,0.06,0.57,0.06c0.43,0,0.74-0.13,0.91-0.38c0.17-0.25,0.26-0.65,0.26-1.2v-1.54
		c0-0.94-0.38-1.41-1.15-1.41c-0.2,0-0.42,0.04-0.64,0.11c-0.22,0.07-0.43,0.17-0.64,0.3c0.04,0.2,0.06,0.36,0.06,0.48V80.99z"/>
	<path class="st0" d="M18.21,82.06c-0.36,0-0.68-0.05-0.96-0.16c-0.28-0.11-0.51-0.25-0.69-0.44c-0.19-0.19-0.32-0.41-0.42-0.67
		C16.05,80.53,16,80.26,16,79.96v-1.97c0-0.29,0.05-0.56,0.14-0.82c0.09-0.26,0.23-0.48,0.42-0.67c0.18-0.19,0.42-0.34,0.69-0.45
		c0.28-0.11,0.59-0.17,0.96-0.17c0.36,0,0.68,0.06,0.96,0.17c0.28,0.11,0.51,0.26,0.69,0.45c0.18,0.19,0.32,0.41,0.42,0.67
		c0.09,0.26,0.14,0.53,0.14,0.82v1.97c0,0.3-0.05,0.58-0.14,0.83c-0.09,0.26-0.23,0.48-0.42,0.67c-0.19,0.19-0.42,0.34-0.69,0.44
		C18.89,82,18.57,82.06,18.21,82.06z M18.21,81.21c0.43,0,0.75-0.11,0.96-0.33c0.22-0.22,0.32-0.53,0.32-0.92v-1.98
		c0-0.39-0.11-0.69-0.32-0.91c-0.22-0.22-0.54-0.33-0.96-0.33c-0.42,0-0.75,0.11-0.96,0.33c-0.22,0.22-0.32,0.52-0.32,0.91v1.98
		c0,0.39,0.11,0.7,0.32,0.92C17.47,81.1,17.79,81.21,18.21,81.21z"/>
	<path class="st0" d="M24.6,80.98c-0.2,0-0.35-0.09-0.45-0.28l-1.54-2.78v3.67c0,0.13-0.05,0.23-0.14,0.32
		c-0.09,0.09-0.2,0.14-0.32,0.14c-0.13,0-0.23-0.05-0.32-0.14c-0.09-0.09-0.13-0.2-0.13-0.32v-5.17c0-0.14,0.05-0.26,0.14-0.35
		c0.09-0.09,0.21-0.14,0.35-0.14c0.11,0,0.2,0.03,0.28,0.08c0.07,0.06,0.14,0.13,0.19,0.22l1.94,3.53l1.94-3.53
		c0.05-0.09,0.12-0.17,0.19-0.22c0.07-0.05,0.17-0.08,0.28-0.08c0.14,0,0.26,0.05,0.35,0.14c0.09,0.09,0.14,0.21,0.14,0.35v5.17
		c0,0.13-0.05,0.23-0.14,0.32c-0.09,0.09-0.19,0.14-0.31,0.14c-0.13,0-0.24-0.05-0.33-0.14c-0.09-0.09-0.13-0.2-0.13-0.32v-3.67
		l-1.54,2.78c-0.1,0.19-0.25,0.28-0.45,0.28H24.6z"/>
	<path class="st0" d="M30.19,78.43h1.2c0.76,0,1.3,0.16,1.62,0.47s0.49,0.75,0.49,1.33c0,0.52-0.16,0.94-0.48,1.26
		c-0.32,0.32-0.81,0.48-1.48,0.48h-1.82c-0.13,0-0.24-0.05-0.33-0.14c-0.09-0.09-0.13-0.2-0.13-0.32v-5.11
		c0-0.13,0.04-0.23,0.13-0.32c0.09-0.09,0.2-0.14,0.33-0.14c0.13,0,0.24,0.05,0.33,0.14c0.09,0.09,0.13,0.2,0.13,0.32V78.43z
		 M30.19,79.21v1.96h1.33c0.72,0,1.07-0.33,1.07-0.98c0-0.12-0.02-0.24-0.05-0.35c-0.03-0.12-0.09-0.22-0.18-0.31
		c-0.09-0.09-0.21-0.17-0.37-0.22c-0.16-0.06-0.36-0.09-0.61-0.09H30.19z M35.25,81.6c0,0.13-0.04,0.24-0.13,0.33
		c-0.09,0.09-0.2,0.13-0.33,0.13s-0.24-0.04-0.33-0.13c-0.09-0.09-0.13-0.2-0.13-0.33v-5.21c0-0.13,0.04-0.23,0.13-0.32
		c0.09-0.09,0.2-0.14,0.33-0.14s0.24,0.05,0.33,0.14c0.09,0.09,0.13,0.2,0.13,0.32V81.6z"/>
	<path class="st0" d="M43.58,81.5c0,0.13-0.04,0.23-0.13,0.32c-0.09,0.09-0.2,0.14-0.33,0.14h-5.67c-0.13,0-0.24-0.05-0.33-0.14
		c-0.09-0.09-0.13-0.2-0.13-0.32v-5.11c0-0.13,0.04-0.24,0.13-0.33c0.09-0.09,0.2-0.13,0.33-0.13c0.13,0,0.24,0.04,0.33,0.13
		c0.09,0.09,0.13,0.2,0.13,0.33v4.8h1.91v-4.8c0-0.13,0.04-0.23,0.13-0.32c0.09-0.09,0.2-0.14,0.33-0.14c0.13,0,0.24,0.05,0.33,0.14
		c0.09,0.09,0.13,0.2,0.13,0.32v4.8h1.91v-4.8c0-0.13,0.04-0.24,0.13-0.33s0.2-0.13,0.33-0.13c0.13,0,0.24,0.04,0.33,0.13
		s0.13,0.2,0.13,0.33V81.5z"/>
	<path class="st0" d="M49.65,81.93c-0.09,0.09-0.2,0.13-0.33,0.13c-0.13,0-0.24-0.04-0.33-0.13c-0.09-0.09-0.13-0.2-0.13-0.33v-4.82
		h-1.88l-0.26,3.26c-0.05,0.6-0.18,1.08-0.4,1.44c-0.22,0.36-0.56,0.54-1.02,0.54c-0.09,0-0.19,0-0.27-0.01
		c-0.09,0-0.16-0.02-0.23-0.05c-0.07-0.03-0.12-0.07-0.16-0.12c-0.04-0.05-0.06-0.13-0.06-0.24c0-0.16,0.05-0.27,0.14-0.34
		c0.09-0.07,0.19-0.11,0.3-0.11c0.04,0,0.06,0,0.08,0.01c0.01,0,0.04,0.01,0.08,0.01c0.21,0,0.37-0.09,0.47-0.26
		c0.1-0.17,0.17-0.44,0.2-0.8l0.31-3.65c0.02-0.17,0.07-0.29,0.17-0.36c0.1-0.07,0.19-0.1,0.28-0.1h2.72c0.13,0,0.24,0.05,0.33,0.14
		c0.09,0.09,0.13,0.2,0.13,0.32v5.14C49.78,81.73,49.74,81.84,49.65,81.93z"/>
	<path class="st0" d="M53.38,81.24c0.25,0,0.47-0.03,0.65-0.09c0.18-0.06,0.37-0.14,0.58-0.24c0.02-0.01,0.04-0.02,0.06-0.02
		c0.03-0.01,0.06-0.01,0.1-0.01c0.12,0,0.22,0.04,0.3,0.12c0.08,0.08,0.12,0.18,0.12,0.29c0,0.14-0.07,0.26-0.21,0.36
		c-0.14,0.1-0.31,0.18-0.51,0.24c-0.2,0.06-0.41,0.1-0.63,0.13c-0.22,0.03-0.41,0.04-0.57,0.04c-0.33,0-0.63-0.05-0.89-0.15
		c-0.26-0.1-0.48-0.24-0.66-0.41c-0.18-0.18-0.31-0.39-0.41-0.63c-0.09-0.24-0.14-0.5-0.14-0.77v-2.21c0-0.28,0.05-0.55,0.14-0.79
		c0.09-0.24,0.23-0.45,0.41-0.63c0.18-0.18,0.41-0.32,0.67-0.42c0.27-0.1,0.58-0.15,0.93-0.15c0.66,0,1.15,0.17,1.48,0.52
		c0.32,0.35,0.48,0.81,0.48,1.41c0,0.54-0.16,0.97-0.47,1.28c-0.31,0.31-0.82,0.47-1.53,0.47c-0.18,0-0.38-0.01-0.58-0.02
		c-0.21-0.02-0.42-0.04-0.62-0.08v0.7c0,0.33,0.11,0.59,0.32,0.79C52.64,81.14,52.96,81.24,53.38,81.24z M54.39,77.82
		c0-0.39-0.09-0.66-0.28-0.83c-0.19-0.17-0.45-0.25-0.8-0.25c-0.39,0-0.69,0.1-0.9,0.29c-0.21,0.19-0.32,0.45-0.32,0.79v0.9
		c0.22,0.03,0.45,0.05,0.7,0.06c0.24,0.01,0.43,0.02,0.54,0.02c0.22,0,0.4-0.03,0.54-0.08c0.14-0.06,0.25-0.13,0.32-0.22
		c0.08-0.09,0.13-0.2,0.15-0.31C54.38,78.05,54.39,77.94,54.39,77.82z"/>
	<path class="st0" d="M57.41,81.93c-0.09,0.09-0.2,0.13-0.33,0.13c-0.13,0-0.24-0.04-0.33-0.13c-0.09-0.09-0.13-0.2-0.13-0.33v-5.21
		c0-0.13,0.04-0.23,0.13-0.32c0.09-0.09,0.2-0.14,0.33-0.14c0.13,0,0.24,0.05,0.33,0.14c0.09,0.09,0.13,0.2,0.13,0.32v2.1h2.5v-2.1
		c0-0.13,0.04-0.23,0.13-0.32c0.09-0.09,0.2-0.14,0.33-0.14c0.13,0,0.24,0.05,0.33,0.14c0.09,0.09,0.13,0.2,0.13,0.32v5.21
		c0,0.13-0.04,0.24-0.13,0.33c-0.09,0.09-0.2,0.13-0.33,0.13c-0.13,0-0.24-0.04-0.33-0.13c-0.09-0.09-0.13-0.2-0.13-0.33v-2.33h-2.5
		v2.33C57.54,81.73,57.5,81.84,57.41,81.93z"/>
	<path class="st0" d="M63.48,81.93c-0.09,0.09-0.2,0.13-0.33,0.13c-0.13,0-0.24-0.04-0.33-0.13c-0.09-0.09-0.13-0.2-0.13-0.33v-5.21
		c0-0.13,0.04-0.23,0.13-0.32c0.09-0.09,0.2-0.14,0.33-0.14c0.13,0,0.24,0.05,0.33,0.14c0.09,0.09,0.13,0.2,0.13,0.32v2.1h2.5v-2.1
		c0-0.13,0.04-0.23,0.13-0.32c0.09-0.09,0.2-0.14,0.33-0.14s0.24,0.05,0.33,0.14c0.09,0.09,0.13,0.2,0.13,0.32v5.21
		c0,0.13-0.04,0.24-0.13,0.33c-0.09,0.09-0.2,0.13-0.33,0.13s-0.24-0.04-0.33-0.13c-0.09-0.09-0.13-0.2-0.13-0.33v-2.33h-2.5v2.33
		C63.61,81.73,63.57,81.84,63.48,81.93z"/>
	<path class="st0" d="M69.68,78.43h1.2c0.76,0,1.3,0.16,1.62,0.47c0.33,0.31,0.49,0.75,0.49,1.33c0,0.52-0.16,0.94-0.48,1.26
		c-0.32,0.32-0.81,0.48-1.48,0.48h-1.82c-0.13,0-0.24-0.05-0.33-0.14c-0.09-0.09-0.13-0.2-0.13-0.32v-5.11
		c0-0.13,0.04-0.23,0.13-0.32c0.09-0.09,0.2-0.14,0.33-0.14c0.13,0,0.24,0.05,0.33,0.14c0.09,0.09,0.13,0.2,0.13,0.32V78.43z
		 M69.68,79.21v1.96h1.33c0.72,0,1.07-0.33,1.07-0.98c0-0.12-0.02-0.24-0.05-0.35c-0.03-0.12-0.09-0.22-0.18-0.31
		c-0.09-0.09-0.21-0.17-0.37-0.22c-0.16-0.06-0.36-0.09-0.61-0.09H69.68z M74.75,81.6c0,0.13-0.04,0.24-0.13,0.33
		c-0.09,0.09-0.2,0.13-0.33,0.13s-0.24-0.04-0.33-0.13c-0.09-0.09-0.13-0.2-0.13-0.33v-5.21c0-0.13,0.04-0.23,0.13-0.32
		c0.09-0.09,0.2-0.14,0.33-0.14s0.24,0.05,0.33,0.14c0.09,0.09,0.13,0.2,0.13,0.32V81.6z"/>
	<path class="st0" d="M78.36,81.24c0.25,0,0.47-0.03,0.65-0.09c0.18-0.06,0.37-0.14,0.58-0.24c0.02-0.01,0.04-0.02,0.06-0.02
		c0.03-0.01,0.06-0.01,0.1-0.01c0.12,0,0.22,0.04,0.3,0.12c0.08,0.08,0.12,0.18,0.12,0.29c0,0.14-0.07,0.26-0.21,0.36
		c-0.14,0.1-0.31,0.18-0.51,0.24c-0.2,0.06-0.41,0.1-0.63,0.13c-0.22,0.03-0.41,0.04-0.57,0.04c-0.33,0-0.63-0.05-0.89-0.15
		c-0.26-0.1-0.48-0.24-0.66-0.41c-0.18-0.18-0.31-0.39-0.41-0.63c-0.09-0.24-0.14-0.5-0.14-0.77v-2.21c0-0.28,0.05-0.55,0.14-0.79
		c0.09-0.24,0.23-0.45,0.41-0.63c0.18-0.18,0.41-0.32,0.67-0.42c0.27-0.1,0.58-0.15,0.93-0.15c0.66,0,1.15,0.17,1.48,0.52
		c0.32,0.35,0.48,0.81,0.48,1.41c0,0.54-0.16,0.97-0.47,1.28c-0.31,0.31-0.82,0.47-1.53,0.47c-0.18,0-0.38-0.01-0.58-0.02
		c-0.21-0.02-0.42-0.04-0.62-0.08v0.7c0,0.33,0.11,0.59,0.32,0.79C77.62,81.14,77.94,81.24,78.36,81.24z M79.37,77.82
		c0-0.39-0.09-0.66-0.28-0.83c-0.19-0.17-0.45-0.25-0.8-0.25c-0.39,0-0.69,0.1-0.9,0.29c-0.21,0.19-0.32,0.45-0.32,0.79v0.9
		c0.22,0.03,0.45,0.05,0.7,0.06c0.24,0.01,0.43,0.02,0.54,0.02c0.22,0,0.4-0.03,0.54-0.08c0.14-0.06,0.25-0.13,0.32-0.22
		c0.08-0.09,0.13-0.2,0.15-0.31C79.35,78.05,79.37,77.94,79.37,77.82z"/>
	<path class="st0" d="M88.03,80.98c-0.2,0-0.35-0.09-0.45-0.28l-1.54-2.78v3.67c0,0.13-0.05,0.23-0.14,0.32
		c-0.09,0.09-0.2,0.14-0.32,0.14c-0.13,0-0.23-0.05-0.32-0.14c-0.09-0.09-0.13-0.2-0.13-0.32v-5.17c0-0.14,0.05-0.26,0.14-0.35
		c0.09-0.09,0.21-0.14,0.35-0.14c0.11,0,0.2,0.03,0.28,0.08c0.07,0.06,0.14,0.13,0.19,0.22l1.94,3.53l1.94-3.53
		c0.05-0.09,0.12-0.17,0.19-0.22c0.07-0.05,0.17-0.08,0.28-0.08c0.14,0,0.26,0.05,0.35,0.14c0.09,0.09,0.14,0.21,0.14,0.35v5.17
		c0,0.13-0.05,0.23-0.14,0.32c-0.09,0.09-0.19,0.14-0.31,0.14c-0.13,0-0.24-0.05-0.33-0.14c-0.09-0.09-0.13-0.2-0.13-0.32v-3.67
		l-1.54,2.78c-0.1,0.19-0.25,0.28-0.45,0.28H88.03z"/>
	<path class="st0" d="M94.58,81.24c0.25,0,0.47-0.03,0.65-0.09c0.18-0.06,0.37-0.14,0.58-0.24c0.02-0.01,0.04-0.02,0.06-0.02
		c0.03-0.01,0.06-0.01,0.1-0.01c0.12,0,0.22,0.04,0.3,0.12c0.08,0.08,0.12,0.18,0.12,0.29c0,0.14-0.07,0.26-0.21,0.36
		c-0.14,0.1-0.31,0.18-0.51,0.24c-0.2,0.06-0.41,0.1-0.63,0.13c-0.22,0.03-0.41,0.04-0.57,0.04c-0.33,0-0.63-0.05-0.89-0.15
		c-0.26-0.1-0.48-0.24-0.66-0.41c-0.18-0.18-0.31-0.39-0.41-0.63c-0.09-0.24-0.14-0.5-0.14-0.77v-2.21c0-0.28,0.05-0.55,0.14-0.79
		c0.09-0.24,0.23-0.45,0.41-0.63c0.18-0.18,0.41-0.32,0.67-0.42c0.27-0.1,0.58-0.15,0.93-0.15c0.66,0,1.15,0.17,1.48,0.52
		c0.32,0.35,0.48,0.81,0.48,1.41c0,0.54-0.16,0.97-0.47,1.28c-0.31,0.31-0.82,0.47-1.53,0.47c-0.18,0-0.38-0.01-0.58-0.02
		c-0.21-0.02-0.42-0.04-0.62-0.08v0.7c0,0.33,0.11,0.59,0.32,0.79C93.83,81.14,94.15,81.24,94.58,81.24z M95.58,77.82
		c0-0.39-0.09-0.66-0.28-0.83c-0.19-0.17-0.45-0.25-0.8-0.25c-0.39,0-0.69,0.1-0.9,0.29c-0.21,0.19-0.32,0.45-0.32,0.79v0.9
		c0.22,0.03,0.45,0.05,0.7,0.06c0.24,0.01,0.43,0.02,0.54,0.02c0.22,0,0.4-0.03,0.54-0.08c0.14-0.06,0.25-0.13,0.32-0.22
		c0.08-0.09,0.13-0.2,0.15-0.31C95.57,78.05,95.58,77.94,95.58,77.82z"/>
	<path class="st0" d="M99.82,81.6c0,0.13-0.04,0.24-0.13,0.33c-0.09,0.09-0.2,0.13-0.33,0.13s-0.24-0.04-0.33-0.13
		c-0.09-0.09-0.13-0.2-0.13-0.33v-4.72h-1.23c-0.12,0-0.22-0.04-0.3-0.12c-0.08-0.08-0.12-0.19-0.12-0.31s0.04-0.23,0.12-0.31
		c0.08-0.08,0.18-0.12,0.3-0.12h3.38c0.12,0,0.22,0.04,0.3,0.12c0.08,0.08,0.12,0.19,0.12,0.31s-0.04,0.23-0.12,0.31
		c-0.08,0.08-0.18,0.12-0.3,0.12h-1.23V81.6z"/>
	<path class="st0" d="M105.44,77.97c0-0.84-0.42-1.26-1.26-1.26c-0.2,0-0.37,0.02-0.5,0.07c-0.13,0.05-0.26,0.11-0.4,0.18
		c-0.02,0.01-0.06,0.03-0.12,0.05c-0.06,0.03-0.13,0.04-0.19,0.04c-0.11,0-0.19-0.04-0.24-0.13c-0.05-0.09-0.08-0.17-0.09-0.26
		c-0.02-0.13,0.02-0.25,0.12-0.35c0.09-0.1,0.22-0.18,0.38-0.24c0.16-0.06,0.34-0.11,0.54-0.14c0.2-0.03,0.4-0.04,0.61-0.04
		c0.74,0,1.27,0.2,1.59,0.6c0.32,0.4,0.48,1,0.48,1.78v2.6c0,0.24,0.07,0.35,0.21,0.35c0.02,0,0.03,0,0.04-0.01
		c0.01,0,0.03-0.01,0.05-0.01c0.11,0,0.19,0.04,0.25,0.12c0.06,0.08,0.09,0.18,0.09,0.28c0,0.15-0.06,0.25-0.17,0.31
		c-0.11,0.06-0.23,0.09-0.37,0.09c-0.2,0-0.37-0.05-0.53-0.16c-0.15-0.11-0.27-0.25-0.36-0.43c-0.46,0.42-1,0.63-1.62,0.63
		c-0.61,0-1.07-0.16-1.36-0.49c-0.3-0.33-0.44-0.76-0.44-1.29v-0.05c0-1.17,0.69-1.75,2.08-1.75c0.42,0,0.82,0.05,1.19,0.17V77.97z
		 M104.24,79.26c-0.24,0-0.44,0.03-0.59,0.08c-0.15,0.05-0.27,0.12-0.35,0.21c-0.08,0.09-0.14,0.19-0.17,0.31
		c-0.03,0.12-0.05,0.24-0.05,0.38v0.05c0,0.28,0.07,0.5,0.22,0.68c0.15,0.18,0.42,0.27,0.81,0.27c0.25,0,0.48-0.04,0.7-0.12
		c0.21-0.08,0.42-0.21,0.63-0.4v-1.28c-0.2-0.06-0.4-0.11-0.61-0.14C104.62,79.27,104.42,79.26,104.24,79.26z"/>
	<path class="st0" d="M112.53,81.93c-0.09,0.09-0.2,0.13-0.33,0.13c-0.13,0-0.24-0.04-0.33-0.13c-0.09-0.09-0.13-0.2-0.13-0.33
		v-4.82h-1.88l-0.26,3.26c-0.05,0.6-0.18,1.08-0.4,1.44c-0.22,0.36-0.56,0.54-1.02,0.54c-0.09,0-0.19,0-0.27-0.01
		c-0.09,0-0.16-0.02-0.23-0.05c-0.07-0.03-0.12-0.07-0.16-0.12c-0.04-0.05-0.06-0.13-0.06-0.24c0-0.16,0.05-0.27,0.14-0.34
		c0.09-0.07,0.19-0.11,0.3-0.11c0.04,0,0.06,0,0.08,0.01c0.01,0,0.04,0.01,0.08,0.01c0.21,0,0.37-0.09,0.47-0.26
		c0.1-0.17,0.17-0.44,0.2-0.8l0.31-3.65c0.02-0.17,0.07-0.29,0.17-0.36c0.1-0.07,0.19-0.1,0.28-0.1h2.72c0.13,0,0.24,0.05,0.33,0.14
		c0.09,0.09,0.13,0.2,0.13,0.32v5.14C112.66,81.73,112.62,81.84,112.53,81.93z"/>
	<path class="st0" d="M118.72,81.93c-0.09,0.09-0.2,0.13-0.33,0.13c-0.13,0-0.24-0.04-0.33-0.13c-0.09-0.09-0.13-0.2-0.13-0.33
		v-4.82h-1.88l-0.26,3.26c-0.05,0.6-0.18,1.08-0.4,1.44c-0.22,0.36-0.56,0.54-1.02,0.54c-0.09,0-0.19,0-0.27-0.01
		c-0.09,0-0.16-0.02-0.23-0.05c-0.07-0.03-0.12-0.07-0.16-0.12c-0.04-0.05-0.06-0.13-0.06-0.24c0-0.16,0.05-0.27,0.14-0.34
		c0.09-0.07,0.19-0.11,0.3-0.11c0.04,0,0.06,0,0.08,0.01c0.01,0,0.04,0.01,0.08,0.01c0.21,0,0.37-0.09,0.47-0.26
		c0.1-0.17,0.17-0.44,0.2-0.8l0.31-3.65c0.02-0.17,0.07-0.29,0.17-0.36c0.1-0.07,0.19-0.1,0.28-0.1h2.72c0.13,0,0.24,0.05,0.33,0.14
		c0.09,0.09,0.13,0.2,0.13,0.32v5.14C118.85,81.73,118.81,81.84,118.72,81.93z"/>
	<path class="st0" d="M122.45,82.06c-0.36,0-0.68-0.05-0.96-0.16c-0.28-0.11-0.51-0.25-0.69-0.44c-0.19-0.19-0.32-0.41-0.42-0.67
		s-0.14-0.53-0.14-0.83v-1.97c0-0.29,0.05-0.56,0.14-0.82c0.09-0.26,0.23-0.48,0.42-0.67c0.18-0.19,0.42-0.34,0.69-0.45
		c0.28-0.11,0.59-0.17,0.96-0.17c0.36,0,0.68,0.06,0.96,0.17c0.28,0.11,0.51,0.26,0.69,0.45c0.18,0.19,0.32,0.41,0.42,0.67
		c0.09,0.26,0.14,0.53,0.14,0.82v1.97c0,0.3-0.05,0.58-0.14,0.83c-0.09,0.26-0.23,0.48-0.42,0.67c-0.19,0.19-0.42,0.34-0.69,0.44
		C123.13,82,122.81,82.06,122.45,82.06z M122.45,81.21c0.43,0,0.75-0.11,0.96-0.33s0.32-0.53,0.32-0.92v-1.98
		c0-0.39-0.11-0.69-0.32-0.91s-0.54-0.33-0.96-0.33c-0.42,0-0.75,0.11-0.96,0.33s-0.32,0.52-0.32,0.91v1.98
		c0,0.39,0.11,0.7,0.32,0.92S122.03,81.21,122.45,81.21z"/>
	<path class="st0" d="M126.86,81.93c-0.09,0.09-0.2,0.13-0.33,0.13s-0.24-0.04-0.33-0.13c-0.09-0.09-0.13-0.2-0.13-0.33v-5.21
		c0-0.13,0.04-0.23,0.13-0.32c0.09-0.09,0.2-0.14,0.33-0.14s0.24,0.05,0.33,0.14c0.09,0.09,0.13,0.2,0.13,0.32v2.1h0.72l1.54-2.33
		c0.09-0.15,0.22-0.22,0.38-0.22c0.12,0,0.22,0.04,0.3,0.11c0.08,0.07,0.13,0.17,0.14,0.28c0,0.04-0.01,0.08-0.02,0.14
		c-0.01,0.05-0.03,0.1-0.05,0.14l-1.62,2.4l1.62,2.4c0.02,0.04,0.04,0.08,0.05,0.14c0.01,0.05,0.02,0.1,0.02,0.14
		c-0.01,0.12-0.05,0.21-0.14,0.28c-0.08,0.07-0.18,0.11-0.3,0.11c-0.16,0-0.28-0.07-0.38-0.22l-1.69-2.56h-0.57v2.33
		C126.99,81.73,126.94,81.84,126.86,81.93z"/>
	<path class="st0" d="M132.97,82.06c-0.36,0-0.68-0.05-0.96-0.16s-0.51-0.25-0.69-0.44c-0.19-0.19-0.32-0.41-0.42-0.67
		s-0.14-0.53-0.14-0.83v-1.97c0-0.29,0.05-0.56,0.14-0.82c0.09-0.26,0.23-0.48,0.42-0.67c0.18-0.19,0.42-0.34,0.69-0.45
		c0.28-0.11,0.59-0.17,0.96-0.17s0.68,0.06,0.96,0.17c0.28,0.11,0.51,0.26,0.69,0.45c0.18,0.19,0.32,0.41,0.42,0.67
		c0.09,0.26,0.14,0.53,0.14,0.82v1.97c0,0.3-0.05,0.58-0.14,0.83c-0.09,0.26-0.23,0.48-0.42,0.67c-0.19,0.19-0.42,0.34-0.69,0.44
		C133.65,82,133.34,82.06,132.97,82.06z M132.97,81.21c0.43,0,0.75-0.11,0.96-0.33c0.22-0.22,0.32-0.53,0.32-0.92v-1.98
		c0-0.39-0.11-0.69-0.32-0.91c-0.22-0.22-0.54-0.33-0.96-0.33c-0.42,0-0.75,0.11-0.96,0.33c-0.22,0.22-0.32,0.52-0.32,0.91v1.98
		c0,0.39,0.11,0.7,0.32,0.92C132.23,81.1,132.55,81.21,132.97,81.21z"/>
	<path class="st0" d="M137.38,81.93c-0.09,0.09-0.2,0.13-0.33,0.13s-0.24-0.04-0.33-0.13c-0.09-0.09-0.13-0.2-0.13-0.33v-5.21
		c0-0.13,0.04-0.23,0.13-0.32c0.09-0.09,0.2-0.14,0.33-0.14s0.24,0.05,0.33,0.14c0.09,0.09,0.13,0.2,0.13,0.32v2.1h2.5v-2.1
		c0-0.13,0.04-0.23,0.13-0.32c0.09-0.09,0.2-0.14,0.33-0.14s0.24,0.05,0.33,0.14c0.09,0.09,0.13,0.2,0.13,0.32v5.21
		c0,0.13-0.04,0.24-0.13,0.33c-0.09,0.09-0.2,0.13-0.33,0.13s-0.24-0.04-0.33-0.13c-0.09-0.09-0.13-0.2-0.13-0.33v-2.33h-2.5v2.33
		C137.51,81.73,137.47,81.84,137.38,81.93z"/>
	<path class="st0" d="M142.33,78.1c0-0.31,0.04-0.59,0.12-0.86c0.08-0.26,0.21-0.49,0.38-0.68c0.17-0.19,0.39-0.35,0.66-0.46
		c0.27-0.11,0.59-0.17,0.96-0.17c0.14,0,0.3,0.01,0.49,0.04c0.18,0.02,0.36,0.06,0.54,0.12c0.17,0.05,0.32,0.13,0.44,0.22
		c0.12,0.09,0.18,0.21,0.18,0.35c0,0.11-0.04,0.2-0.12,0.28c-0.08,0.08-0.17,0.12-0.28,0.12c-0.06,0-0.12-0.01-0.19-0.04
		c-0.14-0.07-0.29-0.13-0.43-0.19c-0.15-0.06-0.32-0.08-0.53-0.08c-0.46,0-0.8,0.12-0.99,0.35c-0.2,0.24-0.3,0.57-0.3,1v1.78
		c0,0.43,0.1,0.77,0.3,1c0.2,0.24,0.53,0.35,0.99,0.35c0.2,0,0.38-0.03,0.53-0.08s0.29-0.12,0.43-0.19
		c0.07-0.02,0.13-0.04,0.19-0.04c0.11,0,0.2,0.04,0.28,0.12c0.08,0.08,0.12,0.17,0.12,0.28c0,0.14-0.06,0.26-0.18,0.35
		c-0.12,0.09-0.26,0.16-0.44,0.22c-0.17,0.05-0.35,0.09-0.54,0.12c-0.19,0.02-0.35,0.04-0.49,0.04c-0.37,0-0.69-0.06-0.96-0.17
		c-0.27-0.11-0.49-0.27-0.66-0.46c-0.17-0.19-0.3-0.42-0.38-0.69c-0.08-0.26-0.12-0.55-0.12-0.86V78.1z"/>
	<path class="st0" d="M149.51,81.6c0,0.13-0.04,0.24-0.13,0.33c-0.09,0.09-0.2,0.13-0.33,0.13s-0.24-0.04-0.33-0.13
		c-0.09-0.09-0.13-0.2-0.13-0.33v-4.72h-1.23c-0.12,0-0.22-0.04-0.3-0.12c-0.08-0.08-0.12-0.19-0.12-0.31s0.04-0.23,0.12-0.31
		c0.08-0.08,0.18-0.12,0.3-0.12h3.38c0.12,0,0.22,0.04,0.3,0.12c0.08,0.08,0.12,0.19,0.12,0.31s-0.04,0.23-0.12,0.31
		c-0.08,0.08-0.18,0.12-0.3,0.12h-1.23V81.6z"/>
	<path class="st0" d="M154.6,82.05c-0.2,0-0.42-0.02-0.65-0.06c-0.23-0.04-0.45-0.09-0.66-0.17v2.23c0,0.13-0.04,0.23-0.12,0.32
		c-0.08,0.09-0.19,0.13-0.34,0.13s-0.26-0.04-0.34-0.13c-0.08-0.09-0.12-0.19-0.12-0.32v-6.45c0-0.2-0.01-0.36-0.04-0.48
		c-0.03-0.12-0.08-0.24-0.15-0.35c-0.02-0.04-0.04-0.07-0.06-0.11c-0.02-0.03-0.02-0.07-0.02-0.13c0-0.13,0.04-0.23,0.13-0.3
		c0.09-0.07,0.18-0.11,0.28-0.11c0.09,0,0.18,0.03,0.25,0.08c0.07,0.05,0.14,0.12,0.21,0.21c0.27-0.14,0.54-0.26,0.83-0.37
		c0.29-0.1,0.58-0.15,0.89-0.15c0.62,0,1.09,0.21,1.41,0.62c0.31,0.41,0.47,0.95,0.47,1.61v1.54c0,0.35-0.03,0.68-0.09,0.97
		c-0.06,0.29-0.17,0.54-0.32,0.75c-0.15,0.21-0.36,0.37-0.61,0.49C155.29,81.99,154.98,82.05,154.6,82.05z M153.29,80.99
		c0.19,0.09,0.4,0.15,0.63,0.19c0.23,0.04,0.42,0.06,0.57,0.06c0.43,0,0.74-0.13,0.91-0.38c0.17-0.25,0.26-0.65,0.26-1.2v-1.54
		c0-0.94-0.38-1.41-1.15-1.41c-0.2,0-0.42,0.04-0.64,0.11c-0.22,0.07-0.43,0.17-0.64,0.3c0.04,0.2,0.06,0.36,0.06,0.48V80.99z"/>
	<path class="st0" d="M160.36,81.22c-0.14,0.46-0.28,0.89-0.42,1.26c-0.14,0.38-0.3,0.7-0.49,0.98c-0.19,0.28-0.41,0.49-0.67,0.65
		c-0.26,0.16-0.58,0.24-0.97,0.25c-0.13,0-0.25-0.04-0.34-0.12s-0.14-0.19-0.14-0.32c0-0.11,0.04-0.21,0.12-0.3s0.18-0.13,0.32-0.14
		c0.19-0.01,0.35-0.04,0.49-0.1c0.14-0.06,0.26-0.15,0.37-0.27c0.11-0.12,0.21-0.28,0.3-0.47c0.09-0.19,0.18-0.42,0.27-0.7
		l-1.88-5.42c-0.02-0.02-0.02-0.04-0.02-0.08c0-0.04,0-0.06,0-0.09c0-0.13,0.04-0.23,0.13-0.31c0.09-0.08,0.2-0.12,0.33-0.12
		c0.09,0,0.17,0.03,0.24,0.08c0.07,0.05,0.13,0.13,0.17,0.23l1.48,4.48l1.29-4.48c0.04-0.1,0.1-0.18,0.18-0.23
		c0.08-0.05,0.16-0.08,0.25-0.08c0.12,0,0.22,0.04,0.32,0.13c0.09,0.09,0.14,0.2,0.14,0.33c0,0.03-0.01,0.08-0.02,0.14L160.36,81.22
		z"/>
	<path class="st0" d="M163.63,81.93c-0.09,0.09-0.2,0.13-0.33,0.13s-0.24-0.04-0.33-0.13c-0.09-0.09-0.13-0.2-0.13-0.33v-5.21
		c0-0.13,0.04-0.23,0.13-0.32c0.09-0.09,0.2-0.14,0.33-0.14s0.24,0.05,0.33,0.14c0.09,0.09,0.13,0.2,0.13,0.32v2.1h0.72l1.54-2.33
		c0.09-0.15,0.22-0.22,0.38-0.22c0.12,0,0.22,0.04,0.3,0.11c0.08,0.07,0.13,0.17,0.14,0.28c0,0.04-0.01,0.08-0.02,0.14
		c-0.01,0.05-0.03,0.1-0.05,0.14l-1.62,2.4l1.62,2.4c0.02,0.04,0.04,0.08,0.05,0.14c0.01,0.05,0.02,0.1,0.02,0.14
		c-0.01,0.12-0.05,0.21-0.14,0.28c-0.08,0.07-0.18,0.11-0.3,0.11c-0.16,0-0.28-0.07-0.38-0.22l-1.69-2.56h-0.57v2.33
		C163.76,81.73,163.72,81.84,163.63,81.93z"/>
	<path class="st0" d="M172.34,76.39v4.8h0.32c0.13,0,0.24,0.04,0.33,0.13c0.09,0.09,0.13,0.2,0.13,0.33v1.51
		c0,0.13-0.04,0.24-0.13,0.33c-0.09,0.09-0.2,0.13-0.33,0.13c-0.13,0-0.24-0.04-0.33-0.13c-0.09-0.09-0.13-0.2-0.13-0.33v-1.19
		h-3.74c-0.13,0-0.24-0.05-0.33-0.14c-0.09-0.09-0.13-0.2-0.13-0.32v-5.11c0-0.13,0.04-0.24,0.13-0.33s0.2-0.13,0.33-0.13
		s0.24,0.04,0.33,0.13s0.13,0.2,0.13,0.33v4.8h2.5v-4.8c0-0.13,0.04-0.24,0.13-0.33c0.09-0.09,0.2-0.13,0.33-0.13
		s0.24,0.04,0.33,0.13C172.29,76.14,172.34,76.26,172.34,76.39z"/>
	<path class="st0" d="M174.76,82.08c-0.16,0-0.28-0.05-0.38-0.15s-0.14-0.22-0.14-0.37V76.4c0-0.13,0.04-0.25,0.12-0.34
		s0.19-0.14,0.32-0.14s0.25,0.05,0.34,0.14c0.09,0.09,0.14,0.21,0.14,0.34v3.98l2.62-4.18c0.1-0.19,0.26-0.28,0.48-0.28
		c0.15,0,0.27,0.05,0.36,0.15c0.09,0.1,0.14,0.22,0.14,0.37v5.16c0,0.13-0.04,0.25-0.13,0.34c-0.09,0.09-0.2,0.14-0.33,0.14
		s-0.24-0.05-0.33-0.14c-0.09-0.09-0.13-0.21-0.13-0.34v-3.98l-2.61,4.19C175.11,81.99,174.96,82.08,174.76,82.08z"/>
	<path class="st0" d="M181.02,82.08c-0.16,0-0.28-0.05-0.38-0.15s-0.14-0.22-0.14-0.37V76.4c0-0.13,0.04-0.25,0.12-0.34
		c0.08-0.09,0.19-0.14,0.32-0.14c0.13,0,0.25,0.05,0.34,0.14c0.09,0.09,0.14,0.21,0.14,0.34v3.98l2.62-4.18
		c0.1-0.19,0.26-0.28,0.48-0.28c0.15,0,0.27,0.05,0.36,0.15c0.09,0.1,0.14,0.22,0.14,0.37v5.16c0,0.13-0.04,0.25-0.13,0.34
		c-0.09,0.09-0.2,0.14-0.33,0.14s-0.24-0.05-0.33-0.14c-0.09-0.09-0.13-0.21-0.13-0.34v-3.98l-2.61,4.19
		C181.37,81.99,181.22,82.08,181.02,82.08z"/>
</g>
</svg>
