<svg id="svg-sprite" style="position:absolute; left: -9999px; top: -9999px;" plainSprite xmlns="http://www.w3.org/2000/svg" xmlns:xlink="http://www.w3.org/1999/xlink"><defs><style>
    .sprite-symbol-usage {display: none;}
    .sprite-symbol-usage:target {display: inline;}
  </style><symbol viewBox="0 0 330.002 330.002" id="arrow-left"><path id="arrow-left_XMLID_227_" d="M233.25 306.001 127.5 165.005 233.25 24.001c4.971-6.628 3.627-16.03-3-21-6.627-4.971-16.03-3.626-21 3L96.75 156.005a15 15 0 0 0 0 18l112.5 149.996a14.975 14.975 0 0 0 12.012 6.001c3.131 0 6.29-.978 8.988-3.001 6.628-4.971 7.971-14.373 3-21z" /></symbol><symbol viewBox="0 0 330.002 330.002" id="arrow-right"><path id="arrow-right_XMLID_226_" d="M233.252 155.997 120.752 6.001c-4.972-6.628-14.372-7.97-21-3-6.628 4.971-7.971 14.373-3 21l105.75 140.997-105.75 141.003c-4.971 6.627-3.627 16.03 3 21a14.93 14.93 0 0 0 8.988 3.001c4.561 0 9.065-2.072 12.012-6.001l112.5-150.004a15 15 0 0 0 0-18z" /></symbol><symbol viewBox="0 0 405.272 405.272" id="checkmark"><path d="M393.401 124.425 179.603 338.208c-15.832 15.835-41.514 15.835-57.361 0L11.878 227.836c-15.838-15.835-15.838-41.52 0-57.358 15.841-15.841 41.521-15.841 57.355-.006l81.698 81.699L336.037 67.064c15.841-15.841 41.523-15.829 57.358 0 15.835 15.838 15.835 41.514.006 57.361z" /></symbol><symbol viewBox="0 0 329.26933 329" id="close"><path d="M194.8 164.77 323.013 36.555c8.343-8.34 8.343-21.825 0-30.164-8.34-8.34-21.825-8.34-30.164 0L164.633 134.605 36.422 6.391c-8.344-8.34-21.824-8.34-30.164 0-8.344 8.34-8.344 21.824 0 30.164l128.21 128.215L6.259 292.984c-8.344 8.34-8.344 21.825 0 30.164a21.266 21.266 0 0 0 15.082 6.25c5.46 0 10.922-2.09 15.082-6.25l128.21-128.214 128.216 128.214a21.273 21.273 0 0 0 15.082 6.25c5.46 0 10.922-2.09 15.082-6.25 8.343-8.34 8.343-21.824 0-30.164zm0 0" /></symbol><symbol viewBox="0 0 32 32" id="email"><path d="M29 4H3a3 3 0 0 0-3 3v18a3 3 0 0 0 3 3h26a3 3 0 0 0 3-3V7a3 3 0 0 0-3-3zm-.72 2L16 14.77 3.72 6zM30 25a1 1 0 0 1-1 1H3a1 1 0 0 1-1-1V7.23l13.42 9.58a1 1 0 0 0 1.16 0L30 7.23z" /></symbol><symbol viewBox="0 -28 512.001 512" id="like"><path d="M256 455.516a30.022 30.022 0 0 1-19.793-7.438c-20.684-18.086-40.625-35.082-58.219-50.074l-.09-.078c-51.582-43.957-96.125-81.918-127.117-119.313C16.137 236.81 0 197.172 0 153.871c0-42.07 14.426-80.883 40.617-109.293C67.121 15.832 103.488 0 143.031 0c29.555 0 56.621 9.344 80.446 27.77C235.5 37.07 246.398 48.453 256 61.73c9.605-13.277 20.5-24.66 32.527-33.96C312.352 9.344 339.418 0 368.973 0c39.539 0 75.91 15.832 102.414 44.578C497.578 72.988 512 111.801 512 153.871c0 43.3-16.133 82.938-50.777 124.738-30.993 37.399-75.532 75.356-127.106 119.309-17.625 15.016-37.597 32.039-58.328 50.168a30.046 30.046 0 0 1-19.789 7.43zM143.031 29.992c-31.066 0-59.605 12.399-80.367 34.914-21.07 22.856-32.676 54.45-32.676 88.965 0 36.418 13.535 68.988 43.883 105.606 29.332 35.394 72.961 72.574 123.477 115.625l.093.078c17.66 15.05 37.68 32.113 58.516 50.332 20.961-18.254 41.012-35.344 58.707-50.418 50.512-43.051 94.137-80.223 123.469-115.617 30.344-36.618 43.879-69.188 43.879-105.606 0-34.516-11.606-66.11-32.676-88.965-20.758-22.515-49.3-34.914-80.363-34.914-22.758 0-43.653 7.235-62.102 21.5-16.441 12.719-27.894 28.797-34.61 40.047-3.452 5.785-9.53 9.238-16.261 9.238s-12.809-3.453-16.262-9.238c-6.71-11.25-18.164-27.328-34.61-40.047-18.448-14.265-39.343-21.5-62.097-21.5zm0 0" /></symbol><symbol viewBox="0 0 24 24" id="location"><path d="M13.376 24h-2.752l-.283-.248C10 23.455 2 16.38 2 10a10 10 0 0 1 20 0c0 6.38-8 13.455-8.341 13.752zm-1.99-2h1.227C13.979 20.735 20 14.877 20 10a8 8 0 0 0-16 0c0 4.886 6.021 10.737 7.386 12z" /><path d="M12 15a5 5 0 1 1 5-5 5.006 5.006 0 0 1-5 5zm0-8a3 3 0 1 0 3 3 3 3 0 0 0-3-3z" /></symbol><symbol viewBox="0 0 512 512" id="menu"><g><g><path d="M492 236H20c-11.046 0-20 8.954-20 20s8.954 20 20 20h472c11.046 0 20-8.954 20-20s-8.954-20-20-20z" /></g></g><g><g><path d="M492 76H20C8.954 76 0 84.954 0 96s8.954 20 20 20h472c11.046 0 20-8.954 20-20s-8.954-20-20-20z" /></g></g><g><g><path d="M492 396H20c-11.046 0-20 8.954-20 20s8.954 20 20 20h472c11.046 0 20-8.954 20-20s-8.954-20-20-20z" /></g></g><g></g><g></g><g></g><g></g><g></g><g></g><g></g><g></g><g></g><g></g><g></g><g></g><g></g><g></g><g></g></symbol><symbol viewBox="0 0 512 512" id="more-menu"><g><g><path d="M416.667 0H95.333C42.766 0 0 42.767 0 95.334v321.332C0 469.233 42.766 512 95.333 512h321.334C469.234 512 512 469.233 512 416.666V95.334C512 42.767 469.234 0 416.667 0zM482 416.666C482 452.691 452.692 482 416.667 482H95.333C59.308 482 30 452.691 30 416.666V95.334C30 59.309 59.308 30 95.333 30h321.334C452.692 30 482 59.309 482 95.334v321.332z" /></g></g><g><g><path d="M400.6 120.5H111.4c-8.284 0-15 6.716-15 15s6.716 15 15 15h289.2c8.284 0 15-6.716 15-15s-6.716-15-15-15z" /></g></g><g><g><path d="M400.6 241H111.4c-8.284 0-15 6.716-15 15s6.716 15 15 15h289.2c8.284 0 15-6.716 15-15s-6.716-15-15-15z" /></g></g><g><g><path d="M400.6 361.5H111.4c-8.284 0-15 6.716-15 15s6.716 15 15 15h289.2c8.284 0 15-6.716 15-15s-6.716-15-15-15z" /></g></g><g></g><g></g><g></g><g></g><g></g><g></g><g></g><g></g><g></g><g></g><g></g><g></g><g></g><g></g><g></g></symbol><symbol viewBox="0 0 512 512" id="pdf"><g><g><path d="M494.479 138.557 364.04 3.018A9.853 9.853 0 0 0 356.945 0h-194.41c-21.757 0-39.458 17.694-39.458 39.442v137.789H44.29c-16.278 0-29.521 13.239-29.521 29.513v147.744C14.769 370.761 28.012 384 44.29 384h78.787v88.627c0 21.71 17.701 39.373 39.458 39.373h295.238c21.757 0 39.458-17.653 39.458-39.351V145.385a9.85 9.85 0 0 0-2.752-6.828zM359.385 26.581l107.079 111.265H359.385V26.581zM44.29 364.308c-5.42 0-9.828-4.405-9.828-9.82V206.744c0-5.415 4.409-9.821 9.828-9.821h265.882c5.42 0 9.828 4.406 9.828 9.821v147.744c0 5.415-4.409 9.82-9.828 9.82H44.29zm433.248 108.341c0 10.84-8.867 19.659-19.766 19.659H162.535c-10.899 0-19.766-8.828-19.766-19.68V384h167.403c16.278 0 29.521-13.239 29.521-29.512V206.744c0-16.274-13.243-29.513-29.521-29.513H142.769V39.442c0-10.891 8.867-19.75 19.766-19.75h177.157v128c0 5.438 4.409 9.846 9.846 9.846h128v315.111z" /></g></g><g><g><path d="M132.481 249.894c-3.269-4.25-7.327-7.01-12.173-8.279-3.154-.846-9.923-1.269-20.308-1.269H72.596v84.577h17.077v-31.904h11.135c7.731 0 13.635-.404 17.712-1.212 3-.654 5.952-1.99 8.856-4.01 2.904-2.019 5.298-4.798 7.183-8.336 1.885-3.538 2.827-7.904 2.827-13.096-.001-6.731-1.636-12.221-4.905-16.471zm-14.625 23.279c-1.288 1.885-3.067 3.269-5.337 4.154s-6.769 1.327-13.5 1.327h-9.346v-24h8.25c6.154 0 10.25.192 12.288.577 2.769.5 5.058 1.75 6.865 3.75 1.808 2 2.712 4.539 2.712 7.615.001 2.5-.644 4.692-1.932 6.577z" /></g></g><g><g><path d="M219.481 263.452c-1.846-5.404-4.539-9.971-8.077-13.702s-7.789-6.327-12.75-7.789c-3.692-1.077-9.058-1.615-16.096-1.615h-31.212v84.577h32.135c6.308 0 11.346-.596 15.115-1.789 5.039-1.615 9.039-3.865 12-6.75 3.923-3.808 6.942-8.788 9.058-14.942 1.731-5.039 2.596-11.039 2.596-18 0-7.923-.923-14.586-2.769-19.99zm-16.616 34.731c-1.154 3.789-2.644 6.51-4.471 8.163-1.827 1.654-4.125 2.827-6.894 3.519-2.115.539-5.558.808-10.327.808h-12.75v-56.019h7.673c6.961 0 11.635.269 14.019.808 3.192.692 5.827 2.019 7.904 3.981 2.077 1.962 3.692 4.692 4.846 8.192s1.731 8.519 1.731 15.058c0 6.538-.577 11.701-1.731 15.49z" /></g></g><g><g><polygon points="294.827,254.654 294.827,240.346 236.846,240.346 236.846,324.923 253.923,324.923 253.923,288.981 
			289.231,288.981 289.231,274.673 253.923,274.673 253.923,254.654 		" /></g></g><g></g><g></g><g></g><g></g><g></g><g></g><g></g><g></g><g></g><g></g><g></g><g></g><g></g><g></g><g></g></symbol><symbol viewBox="0 0 263.285 263.285" id="percent"><g><path d="M193.882 8.561c-7.383-3.756-16.414-.813-20.169 6.573L62.153 234.556c-3.755 7.385-.812 16.414 6.573 20.169a14.94 14.94 0 0 0 6.786 1.632c5.466 0 10.735-2.998 13.383-8.205L200.455 28.73c3.755-7.385.812-16.414-6.573-20.169z" /><path d="M113.778 80.818c0-31.369-25.521-56.89-56.89-56.89C25.521 23.928 0 49.449 0 80.818c0 31.368 25.521 56.889 56.889 56.889 31.369 0 56.889-25.521 56.889-56.889zm-56.889 26.889C42.063 107.707 30 95.644 30 80.818c0-14.827 12.063-26.89 26.889-26.89 14.827 0 26.89 12.062 26.89 26.89-.001 14.826-12.063 26.889-26.89 26.889z" /><path d="M206.396 125.58c-31.369 0-56.89 25.521-56.89 56.889 0 31.368 25.52 56.889 56.89 56.889 31.368 0 56.889-25.52 56.889-56.889 0-31.369-25.52-56.889-56.889-56.889zm0 83.777c-14.827 0-26.89-12.063-26.89-26.889 0-14.826 12.063-26.889 26.89-26.889 14.826 0 26.889 12.063 26.889 26.889 0 14.826-12.062 26.889-26.889 26.889z" /></g><g></g><g></g><g></g><g></g><g></g><g></g><g></g><g></g><g></g><g></g><g></g><g></g><g></g><g></g><g></g></symbol><symbol viewBox="0 0 20 21" id="phone"><path d="M15.182 20.5a7.109 7.109 0 0 1-2.417-.53l-1.403-.51a12.444 12.444 0 0 1-2.843-1.43 19.794 19.794 0 0 1-2.38-1.892 28.159 28.159 0 0 1-2.34-2.413 14.465 14.465 0 0 1-2.294-3.444 23.78 23.78 0 0 1-.777-1.977 16.557 16.557 0 0 1-.579-1.798 4.72 4.72 0 0 1 .152-2.838 6.885 6.885 0 0 1 1.166-2.091c.271-.352.646-.61 1.071-.739A8.305 8.305 0 0 1 4.14.508a.665.665 0 0 1 .682.34l.73 1.296c.341.615.682 1.22 1.033 1.826.152.265.332.502.502.757.036.061.067.125.095.19a.728.728 0 0 1-.095.86c-.325.385-.69.734-1.09 1.041-.36.294-.71.615-1.052.946a.624.624 0 0 0-.142.814c.19.34.36.681.55 1.013.4.708.853 1.385 1.355 2.024a13.354 13.354 0 0 0 2.673 2.546c.763.54 1.56 1.03 2.389 1.466.136.08.288.128.445.142a.53.53 0 0 0 .38-.104c.302-.274.587-.558.862-.861.274-.303.616-.738.947-1.098.09-.1.192-.19.304-.264a.778.778 0 0 1 1.023-.057c.36.227.711.473 1.08.69l1.972 1.098.948.558a.606.606 0 0 1 .265.568 7.193 7.193 0 0 1-.274 1.486 2.621 2.621 0 0 1-1.214 1.551 6.28 6.28 0 0 1-2.606 1.088c-.209.048-.464.057-.72.076Z" /></symbol></defs><use id="arrow-left-usage" xlink:href="#arrow-left" class="sprite-symbol-usage" /><use id="arrow-right-usage" xlink:href="#arrow-right" class="sprite-symbol-usage" /><use id="checkmark-usage" xlink:href="#checkmark" class="sprite-symbol-usage" /><use id="close-usage" xlink:href="#close" class="sprite-symbol-usage" /><use id="email-usage" xlink:href="#email" class="sprite-symbol-usage" /><use id="like-usage" xlink:href="#like" class="sprite-symbol-usage" /><use id="location-usage" xlink:href="#location" class="sprite-symbol-usage" /><use id="menu-usage" xlink:href="#menu" class="sprite-symbol-usage" /><use id="more-menu-usage" xlink:href="#more-menu" class="sprite-symbol-usage" /><use id="pdf-usage" xlink:href="#pdf" class="sprite-symbol-usage" /><use id="percent-usage" xlink:href="#percent" class="sprite-symbol-usage" /><use id="phone-usage" xlink:href="#phone" class="sprite-symbol-usage" /></svg>